<svg class="dn" height="0" version="1.1" width="0" xmlns="http://www.w3.org/2000/svg">
  <defs>
    <g id="hpa-cart">
      <path d="M0 2H7L15 17H29.5L36 5" stroke="currentColor" stroke-width="3"/>
        <circle cx="15.5" cy="23.5" r="2.5" fill="currentColor"/>
        <circle cx="28.5" cy="23.5" r="2.5" fill="currentColor"/>
    </g>
    <g id="sti-close--line">
      <path d="M11.9998 3.99995L4 11.9998" stroke="currentColor" stroke-miterlimit="10" stroke-width="2" stroke-linecap="round" stroke-linejoin="round"/>
      <path d="M4.00027 4L12.0001 11.9998" stroke="currentColor" stroke-miterlimit="10" stroke-width="2" stroke-linecap="round" stroke-linejoin="round"/>
    </g>
    <g id="hpa-search">
      <path d="M15.707 13.293L13 10.586C13.63 9.536 14 8.311 14 7C14 3.14 10.859 0 7 0C3.141 0 0 3.14 0 7C0 10.86 3.141 14 7 14C8.312 14 9.536 13.631 10.586 13L13.293 15.707C13.488 15.902 13.744 16 14 16C14.256 16 14.512 15.902 14.707 15.707L15.707 14.707C16.098 14.316 16.098 13.684 15.707 13.293ZM7 12C4.239 12 2 9.761 2 7C2 4.239 4.239 2 7 2C9.761 2 12 4.239 12 7C12 9.761 9.761 12 7 12Z" stroke-width="2" fill="currentColor"/>
    </g>
    <g id="hpa-hamburguer-menu">
      <path fill="currentColor" d="M15,7H1C0.4,7,0,7.4,0,8s0.4,1,1,1h14c0.6,0,1-0.4,1-1S15.6,7,15,7z" stroke-width="3"/>
      <path fill="currentColor" d="M15,1H1C0.4,1,0,1.4,0,2s0.4,1,1,1h14c0.6,0,1-0.4,1-1S15.6,1,15,1z" stroke-width="3"/>
      <path fill="currentColor" d="M15,13H1c-0.6,0-1,0.4-1,1s0.4,1,1,1h14c0.6,0,1-0.4,1-1S15.6,13,15,13z" stroke-width="3"/>
    </g>
  </defs>
</svg>