<svg id="Layer_1" data-name="Layer 1" xmlns="http://www.w3.org/2000/svg" width="150" height="100" viewBox="0 0 150 100"><title>logo_bp</title><g id="Layer_1-2" data-name="Layer 1"><path d="M112.31,68.64a40.23,40.23,0,0,0-7.86-6.56,41.09,41.09,0,0,0,7.83-6.59A41.39,41.39,0,0,0,102.64,52a44.38,44.38,0,0,0,5.14-8.86,41.23,41.23,0,0,0-10.24,0,40.74,40.74,0,0,0,1.77-10.1,40.57,40.57,0,0,0-9.6,3.51,42.91,42.91,0,0,0-1.78-10.1A43.22,43.22,0,0,0,80.1,33.1,41.09,41.09,0,0,0,75,24.24a42.17,42.17,0,0,0-5.1,8.89A40.62,40.62,0,0,0,62,26.54h0a42.38,42.38,0,0,0-1.77,10.07,41.39,41.39,0,0,0-9.6-3.51,42.18,42.18,0,0,0,1.8,10.1,41,41,0,0,0-10.27,0,40.33,40.33,0,0,0,5.13,8.86,42.68,42.68,0,0,0-9.63,3.5,39.88,39.88,0,0,0,7.86,6.56,41.09,41.09,0,0,0-7.83,6.59,41.39,41.39,0,0,0,9.64,3.47A44.94,44.94,0,0,0,42.22,81a42.52,42.52,0,0,0,10.21,0,40.29,40.29,0,0,0-1.77,10.07,41.8,41.8,0,0,0,9.6-3.51A41.09,41.09,0,0,0,62,97.7a42.1,42.1,0,0,0,7.83-6.59A41.94,41.94,0,0,0,75,100a41.32,41.32,0,0,0,5.1-8.89A40.35,40.35,0,0,0,88,97.7a42.36,42.36,0,0,0,1.77-10.1,42.47,42.47,0,0,0,9.64,3.51A41.85,41.85,0,0,0,97.57,81a40.79,40.79,0,0,0,10.24,0,40.33,40.33,0,0,0-5.13-8.86A44.87,44.87,0,0,0,112.31,68.64Z" style="fill:#090"/><path d="M102.68,72.15a33.55,33.55,0,0,0-6.21-6.27,34.6,34.6,0,0,0,8-3.8,34,34,0,0,0-8-3.75A34.11,34.11,0,0,0,102.68,52a32.77,32.77,0,0,0-8.79-.82,32.75,32.75,0,0,0,3.65-8A33.52,33.52,0,0,0,89,45.39a32.78,32.78,0,0,0,.67-8.82,33.39,33.39,0,0,0-7.23,5,33.07,33.07,0,0,0-2.37-8.5A32.72,32.72,0,0,0,75,40.33a32.56,32.56,0,0,0-5.13-7.2,33,33,0,0,0-2.31,8.47,32.77,32.77,0,0,0-7.3-5,34.62,34.62,0,0,0,.71,8.82,32.75,32.75,0,0,0-8.54-2.2,34.1,34.1,0,0,0,3.69,8,34.68,34.68,0,0,0-8.83.85,33.81,33.81,0,0,0,6.2,6.27,34.28,34.28,0,0,0-8,3.79,34.15,34.15,0,0,0,8,3.76,34.07,34.07,0,0,0-6.2,6.31A32.24,32.24,0,0,0,56,73a32.26,32.26,0,0,0-3.65,8,33.31,33.31,0,0,0,8.54-2.24,33.83,33.83,0,0,0-.71,8.79,33.53,33.53,0,0,0,7.26-5,34.23,34.23,0,0,0,2.34,8.5A34.64,34.64,0,0,0,74.89,84,32.79,32.79,0,0,0,80,91.14a34.23,34.23,0,0,0,2.34-8.5,32.77,32.77,0,0,0,7.3,5A34.27,34.27,0,0,0,89,78.84,33.17,33.17,0,0,0,97.5,81a34.68,34.68,0,0,0-3.68-8A36.4,36.4,0,0,0,102.68,72.15Z" style="fill:#9c0"/><path id="_2" data-name="2" d="M89.71,62.12a26.61,26.61,0,0,0,6.8-3.79,26,26,0,0,0-7.65-1.24,24.69,24.69,0,0,0,5.06-5.89,25,25,0,0,0-7.62,1.49,24.79,24.79,0,0,0,2.77-7.26,25.7,25.7,0,0,0-6.66,4,26,26,0,0,0,.1-7.79,25.43,25.43,0,0,0-4.92,6.06A25.93,25.93,0,0,0,75,40.33a25.54,25.54,0,0,0-2.52,7.3,25.53,25.53,0,0,0-4.93-6,26.08,26.08,0,0,0,.11,7.8,24.78,24.78,0,0,0-6.7-4,24.79,24.79,0,0,0,2.77,7.26,25.88,25.88,0,0,0-7.62-1.45,26.77,26.77,0,0,0,5.07,5.88,25.39,25.39,0,0,0-7.69,1.24,24.61,24.61,0,0,0,6.8,3.76,26.15,26.15,0,0,0-6.8,3.79,27.35,27.35,0,0,0,7.65,1.24A25.69,25.69,0,0,0,56.08,73a25.62,25.62,0,0,0,7.62-1.45,25.34,25.34,0,0,0-2.77,7.26,25.43,25.43,0,0,0,6.66-4,25.82,25.82,0,0,0-.1,7.76,25.64,25.64,0,0,0,4.92-6A25.79,25.79,0,0,0,75,83.91a25.82,25.82,0,0,0,2.56-7.33,25.64,25.64,0,0,0,4.92,6,25.8,25.8,0,0,0-.1-7.76,25.44,25.44,0,0,0,6.69,4,24.88,24.88,0,0,0-2.76-7.26A25.76,25.76,0,0,0,93.92,73a26.56,26.56,0,0,0-5.1-5.88,25.13,25.13,0,0,0,7.69-1.24A25.09,25.09,0,0,0,89.71,62.12Z" style="fill:#ff0"/><path id="_1" data-name="1" d="M82.44,63.39a20.88,20.88,0,0,0,7.23-1.31,21.05,21.05,0,0,0-7.23-1.31,20.52,20.52,0,0,0,6.34-3.72,21.15,21.15,0,0,0-7.26,1.24,20.75,20.75,0,0,0,4.71-5.67,21.32,21.32,0,0,0-6.38,3.65,21.39,21.39,0,0,0,2.49-6.91A21.46,21.46,0,0,0,77.55,55a21.46,21.46,0,0,0,0-7.37A20.78,20.78,0,0,0,75,54.46a21,21,0,0,0-2.55-6.91,21.52,21.52,0,0,0,0,7.38,21.32,21.32,0,0,0-4.75-5.64,20.74,20.74,0,0,0,2.49,6.91,21.83,21.83,0,0,0-6.38-3.65,21.37,21.37,0,0,0,4.71,5.67A21.11,21.11,0,0,0,61.25,57a21.38,21.38,0,0,0,6.34,3.72A21.22,21.22,0,0,0,60.33,62a21.05,21.05,0,0,0,7.23,1.31A21.4,21.4,0,0,0,61.18,67a21.11,21.11,0,0,0,7.26-1.24,20.9,20.9,0,0,0-4.71,5.67,20.64,20.64,0,0,0,6.38-3.65,21.11,21.11,0,0,0-2.48,7,21.06,21.06,0,0,0,4.75-5.6,21.28,21.28,0,0,0,0,7.34A20.88,20.88,0,0,0,75,69.63a21.2,21.2,0,0,0,2.56,6.91,21.23,21.23,0,0,0,0-7.33,20.68,20.68,0,0,0,4.75,5.6,21,21,0,0,0-2.48-6.91,21.57,21.57,0,0,0,6.41,3.65,21.21,21.21,0,0,0-4.71-5.67,21.15,21.15,0,0,0,7.26,1.24A21.37,21.37,0,0,0,82.44,63.39Z" style="fill:#fff"/></g><g id="Layer_2" data-name="Layer 2"><path d="M95.3,11.52c0,2.16-.77,5.13-3.82,5.13-3.69,0-3.69-4.14-3.69-5s0-5.25,3.79-5.25C95,6.38,95.3,10.21,95.3,11.52ZM87.86,0H85.38V15.88l-.07,2.37h2.38l.07-2A4.22,4.22,0,0,0,89,17.61a5.1,5.1,0,0,0,2.94.85,5.68,5.68,0,0,0,4.65-2.27c.67-.85,1.27-2.26,1.27-4.82,0-2.9-.88-4.21-1.56-5a5.37,5.37,0,0,0-4.18-1.7c-3,0-4,1.67-4.32,2.27V0Z" style="fill:#090"/><path d="M102.14,12.05c0-1.17,0-5.35,3.94-5.35,2.9,0,3.61,2.48,3.61,4.85a7.68,7.68,0,0,1-1.06,4.15,3.33,3.33,0,0,1-2.8,1.27C102.39,16.94,102.14,13.64,102.14,12.05ZM99.81,23.32h2.44V16.8a4.54,4.54,0,0,0,4,2c3.15,0,6-2.16,6-7.09s-2.69-6.84-5.52-6.84a5.14,5.14,0,0,0-4.5,2.41l0-2.19H99.77c0,1.27.07,1.59.07,2.16l0,16.09Z" style="fill:#090"/></g></svg>