<svg height="100" viewBox="0 0 200 100" width="200" xmlns="http://www.w3.org/2000/svg" xmlns:xlink="http://www.w3.org/1999/xlink"><radialGradient id="a" cx="33.72" cy="37.43" gradientUnits="userSpaceOnUse" r="13.95"><stop offset="0" stop-color="#83cfe2"/><stop offset=".57" stop-color="#42acd8"/><stop offset="1" stop-color="#1694d2"/></radialGradient><linearGradient id="b" gradientUnits="userSpaceOnUse" x1="16.07" x2="28.71" y1="42.23" y2="34.93"><stop offset="0" stop-color="#010101"/><stop offset=".7" stop-color="#fff" stop-opacity="0"/></linearGradient><linearGradient id="c" gradientUnits="userSpaceOnUse" x1="15.07" x2="65.35" y1="44.94" y2="44.94"><stop offset="0" stop-color="#7bc144"/><stop offset=".1" stop-color="#99cb3b"/><stop offset=".24" stop-color="#bbd631"/><stop offset=".35" stop-color="#cfdd2b"/><stop offset=".42" stop-color="#d7df29"/><stop offset=".64" stop-color="#afd235"/><stop offset=".88" stop-color="#89c640"/><stop offset="1" stop-color="#7bc144"/></linearGradient><radialGradient id="d" cx="33.34" cy="62.99" gradientTransform="matrix(.99433794 .10626407 -.03931771 .36790504 2.65 36.41)" gradientUnits="userSpaceOnUse" r="13.87"><stop offset="0" stop-color="#5cc0d1"/><stop offset=".04" stop-color="#56bcd1"/><stop offset=".28" stop-color="#3aabd1"/><stop offset=".52" stop-color="#269ed2"/><stop offset=".76" stop-color="#1a97d2"/><stop offset="1" stop-color="#1694d2"/></radialGradient><linearGradient id="e" x1="16.03" x2="29.42" xlink:href="#b" y1="58.31" y2="66.03"/><linearGradient id="f" x1="14.59" x2="59.3" xlink:href="#c" y1="56.32" y2="56.32"/><g fill="#1694d2"><path d="m108.1 59.63h-5.89c-2.31 0-3.94-.85-4.45-3.2h12.69c0-.47.07-1 .07-1.36 0-5.17-2.79-9.9-8.88-9.9-5.31 0-9 4.29-9 9.49v.07a9.12 9.12 0 0 0 9.53 9.42h3zm-6.46-10.31c2.17 0 3.54 1.57 3.84 3.88h-7.79c.41-2.34 1.81-3.88 4-3.88"/><path d="m113.87 45.51h5.13v3.68c1.06-2.52 2.76-4.15 5.81-4v5.41h-.26c-3.44 0-5.55 2.08-5.55 6.43v6.74h-5.17z"/><path d="m163.74 59.63h-5.88c-2.32 0-4-.85-4.46-3.2h12.69c0-.47.07-1 .07-1.36 0-5.17-2.79-9.9-8.88-9.9-5.3 0-9 4.29-9 9.49v.07a9.11 9.11 0 0 0 9.52 9.42h3zm-6.46-10.31c2.18 0 3.54 1.57 3.84 3.88h-7.78c.4-2.34 1.8-3.88 3.94-3.88"/><path d="m169.51 45.51h5.18v3.68c1.05-2.52 2.75-4.15 5.81-4v5.41h-.28c-3.43 0-5.53 2.08-5.53 6.43v6.74h-5.18z"/><path d="m133.38 53.57c0-2.45 1.26-3.7 3.23-3.7s3.13 1.25 3.13 3.7v10.18h5.17v-11.81c0-4.18-2.27-6.77-6.19-6.77a6.45 6.45 0 0 0 -5.34 2.93v-2.59h-5.17v18.24h5.17z"/><path d="m84.9 59.35h5.65l-3.14 4.84h-3.06-1.32a12.06 12.06 0 0 1 -11.89-12.3v-.07a12.14 12.14 0 0 1 12.46-12.35 12.32 12.32 0 0 1 9.4 3.69l-3.33 3.84a8.79 8.79 0 0 0 -6.1-2.69c-4 0-6.93 3.34-6.93 7.44v.06c0 4.1 2.83 7.51 6.93 7.51"/><path d="m181.52 45.12h1.72v.23h-.72v1.62h-.3v-1.62h-.7z"/><path d="m185.15 45.12h.28v1.85h-.29v-1.44l-.64.71h-.05l-.64-.71v1.44h-.3v-1.85h.28l.68.76z"/></g><path d="m16.18 39.46a8.24 8.24 0 0 0 -.47.94l-.06.14.82 2.36 4.07 2.46.17-.42a14.11 14.11 0 0 1 23.39-4.5l.11.12h.09l7.49-.62a20.63 20.63 0 0 0 -35.61-.48" fill="url(#a)"/><path d="m16.28 39.4a10.43 10.43 0 0 0 -.48.94l-.05.14.82 2.36 4.06 2.46.17-.42a14.08 14.08 0 0 1 8.09-8l-2.71-5.94a20.6 20.6 0 0 0 -9.9 8.47" fill="url(#b)" opacity=".57"/><path d="m15.07 43.27v.11a4.44 4.44 0 0 0 1.3 3.32s2.84 4.16 17.63 4.83c9 .4 27.15-2.46 27.15-2.46l4.17-6.44s-22.53 2.45-31.18 2.45c-13.46 0-16-4-16-4a3.82 3.82 0 0 1 -1.27-2.81 8.27 8.27 0 0 0 -1.83 5" fill="url(#c)"/><path d="m16.22 57.51-.82 2.37.06.13a9.28 9.28 0 0 0 .47 1 20.63 20.63 0 0 0 35.35-.06 77.48 77.48 0 0 1 -9.93 1.18 14.14 14.14 0 0 1 -20.9-6.6l-.17-.42z" fill="url(#d)"/><path d="m16.38 57.7-.82 2.38.06.13a9.28 9.28 0 0 0 .47.95 21.25 21.25 0 0 0 11.08 8.76l1.65-6.2a14.29 14.29 0 0 1 -8.26-8.07l-.1-.41z" fill="url(#e)" opacity=".57"/><path d="m34.62 53.56a55.73 55.73 0 0 1 -13.18-1.66 6.23 6.23 0 0 0 -5.54 1.42 4.21 4.21 0 0 0 -1.3 3.32v.12a8.17 8.17 0 0 0 1.83 5 3.8 3.8 0 0 1 1.26-2.81s1.75-1.81 3.62-1.14c3.06 1.19 13 1.86 13 1.86a120.65 120.65 0 0 0 20.82-2.24l4.17-6.45a145.14 145.14 0 0 1 -24.68 2.63" fill="url(#f)"/></svg>