<svg id="Layer_1" data-name="Layer 1" xmlns="http://www.w3.org/2000/svg" xmlns:xlink="http://www.w3.org/1999/xlink" width="150" height="100" viewBox="0 0 150 100"><defs><clipPath id="clip-path"><rect x="78.31" y="54.19" width="5.71" height="0.56" transform="translate(-4.93 8.19) rotate(-5.61)" style="fill:none"/></clipPath><linearGradient id="linear-gradient" x1="-730.05" y1="659.33" x2="-729.75" y2="659.33" gradientTransform="matrix(0, 9.78, 9.78, 0, -6365.08, 7189.25)" gradientUnits="userSpaceOnUse"><stop offset="0" stop-color="#fff"/><stop offset="1"/></linearGradient><linearGradient id="linear-gradient-2" x1="124.61" y1="51.34" x2="121.56" y2="46.06" gradientUnits="userSpaceOnUse"><stop offset="0" stop-color="#0077c0"/><stop offset="1" stop-color="#007ec5"/></linearGradient><linearGradient id="linear-gradient-3" x1="118.26" y1="42.79" x2="109.64" y2="39.22" gradientUnits="userSpaceOnUse"><stop offset="0" stop-color="#007ec5"/><stop offset="1" stop-color="#008ace"/></linearGradient><linearGradient id="linear-gradient-4" x1="98.79" y1="42.91" x2="107.47" y2="39.23" gradientUnits="userSpaceOnUse"><stop offset="0" stop-color="#0095d1"/><stop offset="1" stop-color="#008ace"/></linearGradient><linearGradient id="linear-gradient-5" x1="91.98" y1="54.78" x2="95.54" y2="46.24" gradientUnits="userSpaceOnUse"><stop offset="0" stop-color="#00a0d7"/><stop offset="1" stop-color="#0095d1"/></linearGradient><linearGradient id="linear-gradient-6" x1="91.95" y1="57.11" x2="95.64" y2="65.71" gradientUnits="userSpaceOnUse"><stop offset="0" stop-color="#00a0d7"/><stop offset="1" stop-color="#00acdc"/></linearGradient><linearGradient id="linear-gradient-7" x1="98.19" y1="68.74" x2="108.29" y2="72.86" gradientUnits="userSpaceOnUse"><stop offset="0" stop-color="#00acdc"/><stop offset="1" stop-color="#60c4e5"/></linearGradient><linearGradient id="linear-gradient-8" x1="120.82" y1="64.69" x2="110.01" y2="74.26" gradientUnits="userSpaceOnUse"><stop offset="0" stop-color="#60c4e5" stop-opacity="0.2"/><stop offset="0.1" stop-color="#60c4e5" stop-opacity="0.35"/><stop offset="0.25" stop-color="#60c4e5" stop-opacity="0.55"/><stop offset="0.41" stop-color="#60c4e5" stop-opacity="0.71"/><stop offset="0.56" stop-color="#60c4e5" stop-opacity="0.84"/><stop offset="0.71" stop-color="#60c4e5" stop-opacity="0.93"/><stop offset="0.86" stop-color="#60c4e5" stop-opacity="0.98"/><stop offset="1" stop-color="#60c4e5"/></linearGradient><linearGradient id="linear-gradient-9" x1="-728.55" y1="675" x2="-728.25" y2="675" gradientTransform="matrix(0, 56.26, 56.26, 0, -37839.39, 41033.46)" gradientUnits="userSpaceOnUse"><stop offset="0" stop-color="#00a886"/><stop offset="1" stop-color="#6cc071"/></linearGradient><linearGradient id="linear-gradient-10" x1="137.51" y1="66.66" x2="141.97" y2="70.33" gradientUnits="userSpaceOnUse"><stop offset="0" stop-color="#6cc071"/><stop offset="0.13" stop-color="#6cc071" stop-opacity="0.97"/><stop offset="0.3" stop-color="#6cc071" stop-opacity="0.89"/><stop offset="0.49" stop-color="#6cc071" stop-opacity="0.76"/><stop offset="0.69" stop-color="#6cc071" stop-opacity="0.57"/><stop offset="0.89" stop-color="#6cc071" stop-opacity="0.34"/><stop offset="1" stop-color="#6cc071" stop-opacity="0.2"/></linearGradient><linearGradient id="linear-gradient-11" x1="55.33" y1="45.15" x2="68.52" y2="45.15" gradientUnits="userSpaceOnUse"><stop offset="0" stop-color="#ed0c6e"/><stop offset="1" stop-color="#e8558e"/></linearGradient><linearGradient id="linear-gradient-12" x1="75.25" y1="42.95" x2="78.14" y2="54.55" gradientUnits="userSpaceOnUse"><stop offset="0" stop-color="#e8558e"/><stop offset="1" stop-color="#ef548e" stop-opacity="0.2"/></linearGradient><clipPath id="clip-path-2"><path d="M78.29,54.47h0Z" style="fill:none"/></clipPath><mask id="mask" x="78.18" y="53.36" width="5.95" height="2.23" maskUnits="userSpaceOnUse"><g style="clip-path:url(#clip-path)"><rect x="78.25" y="53.64" width="5.81" height="1.67" transform="translate(-4.93 8.19) rotate(-5.61)" style="fill:url(#linear-gradient)"/></g></mask><linearGradient id="linear-gradient-13" x1="-730.05" y1="659.33" x2="-729.75" y2="659.33" gradientTransform="matrix(0, 9.78, 9.78, 0, -6365.36, 7189)" gradientUnits="userSpaceOnUse"><stop offset="0" stop-color="#ef548e"/><stop offset="1" stop-color="#ef548e"/></linearGradient><linearGradient id="linear-gradient-14" x1="37.53" y1="45.46" x2="41.19" y2="52.46" gradientUnits="userSpaceOnUse"><stop offset="0" stop-color="#ee2e24"/><stop offset="1" stop-color="#ed1c24"/></linearGradient><linearGradient id="linear-gradient-15" x1="25.01" y1="38.79" x2="35.32" y2="43.23" gradientUnits="userSpaceOnUse"><stop offset="0" stop-color="#ee3124"/><stop offset="1" stop-color="#ee2e24"/></linearGradient><linearGradient id="linear-gradient-16" x1="24.75" y1="38.66" x2="14.54" y2="43.37" gradientUnits="userSpaceOnUse"><stop offset="0" stop-color="#ee3124"/><stop offset="1" stop-color="#ef3b24"/></linearGradient><linearGradient id="linear-gradient-17" x1="12.19" y1="45.44" x2="7.89" y2="55.56" gradientUnits="userSpaceOnUse"><stop offset="0" stop-color="#ef3b24"/><stop offset="1" stop-color="#f04e26"/></linearGradient><linearGradient id="linear-gradient-18" x1="7.82" y1="56.12" x2="12.32" y2="66.81" gradientUnits="userSpaceOnUse"><stop offset="0" stop-color="#f04e26"/><stop offset="1" stop-color="#f05326"/></linearGradient><linearGradient id="linear-gradient-19" x1="14.27" y1="68.69" x2="24.7" y2="72.8" gradientUnits="userSpaceOnUse"><stop offset="0" stop-color="#f05326"/><stop offset="1" stop-color="#f2612c"/></linearGradient><linearGradient id="linear-gradient-20" x1="37.24" y1="64.55" x2="27.43" y2="73.23" gradientUnits="userSpaceOnUse"><stop offset="0" stop-color="#f2612c" stop-opacity="0.2"/><stop offset="0.12" stop-color="#f2612c" stop-opacity="0.38"/><stop offset="0.27" stop-color="#f2602c" stop-opacity="0.57"/><stop offset="0.42" stop-color="#f1602b" stop-opacity="0.72"/><stop offset="0.57" stop-color="#f15f2b" stop-opacity="0.84"/><stop offset="0.72" stop-color="#f15f2b" stop-opacity="0.93"/><stop offset="0.86" stop-color="#f15f2b" stop-opacity="0.98"/><stop offset="1" stop-color="#f15f2b"/></linearGradient></defs><title>logo_enel</title><path d="M118.09,46.29a13.39,13.39,0,0,1,3.65,6.31h5.86a19.2,19.2,0,0,0-5.49-10.4Z" style="fill:url(#linear-gradient-2)"/><path d="M108.46,36.7l.05,5.74h.12a13.49,13.49,0,0,1,9.54,3.94l4.06-4a19.24,19.24,0,0,0-13.6-5.62h-.17" style="fill:url(#linear-gradient-3)"/><path d="M94.93,42.45l4.09,4a13.43,13.43,0,0,1,9.61-4V36.7a19.14,19.14,0,0,0-13.7,5.75" style="fill:url(#linear-gradient-4)"/><path d="M89.42,55.91v.17l5.73,0v-.12a13.44,13.44,0,0,1,3.95-9.53l-4-4.05a19.13,19.13,0,0,0-5.63,13.58" style="fill:url(#linear-gradient-5)"/><path d="M89.42,55.91a19.12,19.12,0,0,0,5.75,13.7l4-4.09a13.41,13.41,0,0,1-4-9.61Z" style="fill:url(#linear-gradient-6)"/><path d="M95.05,69.5a19.16,19.16,0,0,0,13.58,5.62h.17l0-5.73h-.12a13.44,13.44,0,0,1-9.53-4Z" style="fill:url(#linear-gradient-7)"/><path d="M108.63,69.39v5.73a19.17,19.17,0,0,0,15.24-7.51l-4.55-3.49a13.45,13.45,0,0,1-10.69,5.27" style="fill:url(#linear-gradient-8)"/><rect x="133.33" y="44.94" width="5.73" height="17.33" style="fill:url(#linear-gradient-9)"/><path d="M133.33,62.19h0c0,6,2.82,9.69,7.71,12.91l3.28-4.71c-3.35-2.28-5.26-4.06-5.26-8.2Z" style="fill:url(#linear-gradient-10)"/><path d="M55.33,41.94V53.58c.86-4.6,4.94-11.14,12.76-11.14h.43V36.71h-.43a18.06,18.06,0,0,0-12.76,5.23" style="fill:url(#linear-gradient-11)"/><path d="M68.26,36.71v5.73a10.12,10.12,0,0,1,10,10.15v1.88H84V52.59A15.86,15.86,0,0,0,68.26,36.71Z" style="fill:url(#linear-gradient-12)"/><g style="clip-path:url(#clip-path-2)"><g style="mask:url(#mask)"><rect x="78.31" y="54.19" width="5.71" height="0.56" transform="translate(-4.94 8.19) rotate(-5.61)" style="fill:url(#linear-gradient-13)"/></g></g><rect x="49.59" y="38.27" width="5.73" height="20.07" style="fill:#b2b3ad"/><rect x="133.33" y="24.88" width="5.73" height="20.07" style="fill:#b2b3ad"/><rect x="78.29" y="54.47" width="5.73" height="20.07" style="fill:#b2b3ad"/><rect x="107.53" y="52.6" width="20.07" height="5.73" style="fill:#b2b3ad"/><path d="M34.35,46.29A13.3,13.3,0,0,1,38,52.6h5.86a19.14,19.14,0,0,0-5.49-10.4Z" style="fill:url(#linear-gradient-14)"/><path d="M24.73,36.7l.05,5.74h.11a13.54,13.54,0,0,1,9.55,3.94l4.05-4a19.24,19.24,0,0,0-13.6-5.62h-.16" style="fill:url(#linear-gradient-15)"/><path d="M11.19,42.45l4.09,4a13.45,13.45,0,0,1,9.61-4V36.7a19.15,19.15,0,0,0-13.7,5.75" style="fill:url(#linear-gradient-16)"/><path d="M5.68,55.91v.17l5.74,0v-.12a13.47,13.47,0,0,1,3.94-9.53l-4-4.05A19.13,19.13,0,0,0,5.68,55.91" style="fill:url(#linear-gradient-17)"/><path d="M5.68,55.91h0a19.12,19.12,0,0,0,5.75,13.7l4-4.09a13.4,13.4,0,0,1-4-9.61Z" style="fill:url(#linear-gradient-18)"/><path d="M11.31,69.5a19.18,19.18,0,0,0,13.58,5.62h.17l0-5.73h-.12a13.44,13.44,0,0,1-9.53-4Z" style="fill:url(#linear-gradient-19)"/><path d="M24.89,69.39v5.73a19.2,19.2,0,0,0,15.25-7.51l-4.55-3.49a13.49,13.49,0,0,1-10.7,5.27" style="fill:url(#linear-gradient-20)"/><rect x="23.79" y="52.6" width="20.07" height="5.73" style="fill:#b2b3ad"/></svg>