<svg id="Layer_1" data-name="Layer 1" xmlns="http://www.w3.org/2000/svg" width="150" height="100" viewBox="0 0 150 100"><title>logo_expedia</title><g id="g4346"><g id="g4352"><path id="path4354" d="M72.11,62H67.45s0,0,0,0l-4-4.9-4,4.9a0,0,0,0,1,0,0H55.59a.05.05,0,0,1-.05,0,0,0,0,0,1,0-.06l5.91-7.27-5.85-7.19a.08.08,0,0,1,0-.07s0,0,0,0h4.66a.05.05,0,0,1,0,0l3.52,4.36,3.59-4.37,0,0h3.8l.06,0a.15.15,0,0,1,0,.07L65.81,54.1l6.34,7.8s0,0,0,.06,0,0,0,0" style="fill:#072f54"/></g><g id="g4356"><path id="path4358" d="M97.32,49.92a3.79,3.79,0,0,0-3.88,3.43h7v-.14a3.18,3.18,0,0,0-3.14-3.29m6.76,5.66a.05.05,0,0,1,0,0H93.37c.22,2.48,1.83,3.9,4.44,3.9a12.29,12.29,0,0,0,5.73-1.83.06.06,0,0,1,.09,0V61s0,.05,0,.05a17.41,17.41,0,0,1-6.27,1.59A7.67,7.67,0,0,1,89.4,54.7a7.68,7.68,0,0,1,7.92-8,6.47,6.47,0,0,1,6.88,6.71c0,.63-.11,2.09-.12,2.13" style="fill:#072f54"/></g><g id="g4360"><path id="path4362" d="M125.75,44.31A2.36,2.36,0,0,1,123.37,42a2.38,2.38,0,1,1,4.75,0,2.35,2.35,0,0,1-2.37,2.33M123.83,62a.05.05,0,0,1-.06-.06V47.4a.06.06,0,0,1,0-.06h3.85a.05.05,0,0,1,0,.06V61.93s0,.06,0,.06Z" style="fill:#072f54"/></g><g id="g4364"><path id="path4366" d="M79.15,59.8a8.28,8.28,0,0,1-2.22-.31V50.16a8.61,8.61,0,0,1,2.62-.44c2.67,0,4.46,2,4.46,4.89,0,3.16-1.91,5.19-4.86,5.19m1-13a10.06,10.06,0,0,0-3.34.59H73a.06.06,0,0,0-.06.06V71.23a8.88,8.88,0,0,0,4-1.55V62.43a18.15,18.15,0,0,0,2.47.22c5.25,0,8.65-3.14,8.65-8a7.53,7.53,0,0,0-7.85-7.89" style="fill:#072f54"/></g><g id="g4368"><path id="path4370" d="M116.82,58.6a7.15,7.15,0,0,1-3.28.92c-2.38,0-3.8-1.68-3.8-4.49,0-3.25,1.82-5.36,4.63-5.36a5.76,5.76,0,0,1,2.45.61Zm0-19v7.61a11.21,11.21,0,0,0-3.12-.47,7.84,7.84,0,0,0-8,8c0,4.55,3,7.85,7.23,7.85a9.32,9.32,0,0,0,4.4-1.18v1.31a8.66,8.66,0,0,0,3.46-1.47V38.09a8.51,8.51,0,0,0-4,1.55" style="fill:#072f54"/></g><g id="g4372"><path id="path4374" d="M141.06,58.57a6.33,6.33,0,0,1-3.05,1c-2.54,0-4.07-1.68-4.07-4.5,0-3.21,1.8-5.36,4.47-5.36a6,6,0,0,1,2.65.84Zm4-11.41a.17.17,0,0,0-.17-.16h-3.11a.17.17,0,0,0-.17.16v.53h-.08a9.48,9.48,0,0,0-3.87-.92,7.83,7.83,0,0,0-7.68,8.15c0,4.62,3,7.72,7.52,7.72a4.93,4.93,0,0,0,4.18-1.74v1.87A9,9,0,0,0,145,61.31Z" style="fill:#072f54"/></g><g id="g4376"><path id="path4378" d="M44.94,58.36h9.67A8.94,8.94,0,0,1,53.26,62H43.2a2.4,2.4,0,0,1-2.37-2.16.43.43,0,0,0,0,0V40.71a.43.43,0,0,1,0-.05,2.4,2.4,0,0,1,2.37-2.17H54.58a8.73,8.73,0,0,1-1.35,3.66H44.94v5.19h8.21a.06.06,0,0,1,.06.06V51a.06.06,0,0,1-.06.05H44.94v7.29Z" style="fill:#072f54"/></g><g id="g4380"><path id="path4382" d="M32.83,62.29a1.66,1.66,0,1,1,1.54-1.66,1.55,1.55,0,0,1-1.54,1.66m0-3.51A1.79,1.79,0,0,0,31,60.63a1.81,1.81,0,1,0,3.62,0,1.79,1.79,0,0,0-1.81-1.85" style="fill:#072f54"/></g><g id="g4384"><path id="path4386" d="M32.4,60.48V59.8h.46c.23,0,.5,0,.5.32s-.25.36-.54.36Zm1.29-.32c0-.44-.27-.63-.79-.63h-.83v2.19h.36v-.94h.33l.57.94h.4l-.61-1a.56.56,0,0,0,.57-.6" style="fill:#072f54"/></g><g id="g4388"><path id="path4390" d="M148.2,49.76a1.67,1.67,0,1,1,1.53-1.66,1.55,1.55,0,0,1-1.53,1.66m0-3.51a1.8,1.8,0,0,0-1.82,1.85,1.81,1.81,0,1,0,1.82-1.85" style="fill:#072f54"/></g><g id="g4392"><path id="path4394" d="M147.76,47.94v-.67h.45c.23,0,.51,0,.51.31s-.26.36-.54.36Zm1.29-.31c0-.44-.27-.63-.79-.63h-.83v2.19h.35v-.94h.34l.57.94h.4l-.61-1a.56.56,0,0,0,.57-.6" style="fill:#072f54"/></g><g id="g4396"><path id="path4398" d="M20.36,42.14l-.7-2-5.95-7.95,1.07-.27L25,40.81l6-1.73a9,9,0,0,1,2.13-.22,17.41,17.41,0,0,0-33,9.93l14.45-5Z" style="fill:#072f54"/></g><g id="g4400"><path id="path4402" d="M33.83,40.43a9.38,9.38,0,0,1-2.08,1l-6,1.73-4,12.95-1.05.34.86-9.89L21,44.54l-5.66,1.62-15,3.53a17.4,17.4,0,1,0,33.47-9.26" style="fill:#072f54"/></g><g id="g4404"><path id="path4406" d="M21,44.54l.48,2.06-.86,9.89,1.05-.34,4-13,6-1.72a9.38,9.38,0,0,0,2.08-1,16.58,16.58,0,0,0-.63-1.57,9,9,0,0,0-2.13.22L25,40.8,14.78,31.94l-1.07.27,5.95,7.94.7,2-5.71,1.63L.2,48.79c0,.3.1.6.16.89l15-3.52Z" style="fill:#fbc108"/></g></g></svg>