<svg id="Layer_1" data-name="Layer 1" xmlns="http://www.w3.org/2000/svg" xmlns:xlink="http://www.w3.org/1999/xlink" width="150" height="100" viewBox="0 0 150 100"><defs><clipPath id="clip-path"><path d="M106.36,50.91s0,0,0,.05V49.54l-.91-1ZM105,47.18l1.41,1.57v-3l-2.44-1.35Zm-1-1.07-.78-2.1-2.18-1.21Zm-.35-2.47,2.72,1.51V41.63l-3.88-1.11Zm-3.67-2,3,1.64-1.08-2.91-4-1.14Zm-2.33-1.29.93.51-1.71-1.9L95,38.38c1,.64,1.85,1.29,2.69,1.94m4.61-.41,4.11,1.17V37.37l-5.3-.66Zm-5.1-1.44,4.48,1.27-1.16-3.1-5.58-.7Zm-5-1.86,1.31.8,2.78.79-2.11-2.36-4.33-.55c.81.44,1.59.88,2.35,1.32m-8.76-4.4,1.3.57c1.31.59,2.57,1.2,3.78,1.82l5.13.64-2.72-3Zm8.19,0,2.81,3.13,5.91.74-1.44-3.87Zm7.84,0,1.46,3.94,5.51.69V32.21ZM64.66,25.68c3.67,1,7.15,2.13,10.35,3.25,2.51.89,4.9,1.81,7.14,2.75H90.4l-5.37-6Zm21.07,0,5.37,6h7.55l-2.23-6Zm11.25,0,2.23,6h7.17v-6Z" style="fill:none"/></clipPath><linearGradient id="linear-gradient" x1="323.53" y1="-614.58" x2="324.56" y2="-614.58" gradientTransform="translate(-12995.16 24847.17) scale(40.37)" gradientUnits="userSpaceOnUse"><stop offset="0" stop-color="#00467f"/><stop offset="0.15" stop-color="#005e98"/><stop offset="0.4" stop-color="#0080be"/><stop offset="0.63" stop-color="#0099d9"/><stop offset="0.84" stop-color="#00a9e9"/><stop offset="1" stop-color="#00aeef"/></linearGradient><clipPath id="clip-path-2"><path d="M106.91,64.62v5.53l4.36-4.52-1.79-4.82Zm0-5.62v4.68l2.34-3.48-1.41-3.81Zm2.93,1.27,1.83,4.94,4.53-4.7-3.72-4.16Zm-2.93-2.83.65-1.81-.65-1.74Zm1.2-1.81,1.5,4,2.5-3.71-2.94-3.29Zm4.67.27,3.78,4.23,5.49-5.69-6-3.34Zm-5.87-3.51.92,2.47,1-2.65-1.87-2.08Zm2.46-.3,3,3.41,3.14-4.66-4.79-2.65Zm-2.46-2.75L109,51.65l1.34-3.72L106.91,46Zm9.4,1.32,6.11,3.39c2-2,4-4.14,6-6.17l-8.54-2.43Zm-5.36-3,4.9,2.71,3.44-5.1-6.8-1.93Zm-4-2.25,3.57,2L112,43.22l-5.08-1.44v3.66ZM120.13,45l8.65,2.46L135,41,123.8,39.55Zm-7.46-2.12,6.93,2,3.61-5.36-8.93-1.12Zm-5.76-1.64,5.25,1.49,1.59-4.43-6.84-.85Zm0-9v4.7l7,.88,2-5.58Zm9.57,0-2,5.65L123.54,39l4.58-6.78Zm12.27,0-4.62,6.86,11.35,1.42,8-8.28Z" style="fill:none"/></clipPath><linearGradient id="linear-gradient-2" x1="322.3" y1="-614.72" x2="323.34" y2="-614.72" gradientTransform="translate(-11293.69 21795.22) scale(35.37)" gradientUnits="userSpaceOnUse"><stop offset="0" stop-color="#00467f"/><stop offset="0.16" stop-color="#004e88"/><stop offset="0.41" stop-color="#0065a0"/><stop offset="0.73" stop-color="#008ac8"/><stop offset="1" stop-color="#00aeef"/></linearGradient></defs><title>logo_finra</title><rect x="27.03" y="50.43" width="4.2" height="23.89" style="fill:#00467f"/><path d="M82.58,70.24A2.22,2.22,0,0,1,80.14,68c0-1.16.72-2.08,2.45-2.56l9-2.47v7.3ZM95.86,56.57c0-3-1.93-6.14-6.64-6.14H80.35c-1.44,0-1.94.59-2.07,1.82-.06.51-.24,2.26-.24,2.26H88.51c2.22,0,3.08,1,3.08,2.72v1.39L82.74,61c-4.73,1.3-7,3.35-7,7a6.28,6.28,0,0,0,6.59,6.34H95.86V56.57Z" style="fill:#00467f"/><path d="M65,57.23c0-1.68.87-2.72,3.08-2.72h7.1s-.19-1.75-.24-2.26c-.14-1.23-.64-1.82-2.08-1.82H67.36c-4.71,0-6.64,3.09-6.64,6.14V74.32H65V57.23Z" style="fill:#00467f"/><path d="M48.52,54.51c2.22,0,3.08,1,3.08,2.72V74.32h4.27V56.57c0-3-1.93-6.14-6.64-6.14h-13V74.32h4.21V54.51Z" style="fill:#00467f"/><path d="M21.27,61.76c-.13-1.23-.63-1.83-2.07-1.83H10.81v-2.7c0-1.68.86-2.72,3.08-2.72H24s-.19-1.75-.24-2.26c-.13-1.23-.64-1.82-2.08-1.82H13.18c-4.71,0-6.64,3.09-6.64,6.14V74.32h4.27V64H21.52s-.19-1.75-.25-2.25" style="fill:#00467f"/><g style="clip-path:url(#clip-path)"><rect x="64.66" y="25.68" width="41.72" height="25.28" style="fill:url(#linear-gradient)"/></g><g style="clip-path:url(#clip-path-2)"><rect x="106.91" y="32.21" width="36.55" height="37.95" style="fill:url(#linear-gradient-2)"/></g></svg>