<svg id="Layer_1" data-name="Layer 1" xmlns="http://www.w3.org/2000/svg" width="150" height="100" viewBox="0 0 150 100"><title>logo_ge</title><g id="g10"><g id="g12"><path id="path14" d="M74.5,94.59A44.59,44.59,0,1,0,29.91,50,44.59,44.59,0,0,0,74.5,94.59" style="fill:#fff"/><path id="path16" d="M84.5,38.39c0-5.07,3.44-10,5.31-9.06,2.13,1.07-1.6,5.84-5.31,9.06M61.16,40.24c0-4.08,4-11.83,6.48-11,2.91,1-2.41,8.79-6.48,11M57.08,69.39A2.8,2.8,0,0,1,54,66.32C54,61,61.36,56,66.92,53.23c-1,7.4-3.49,15.88-9.84,16.16m34-17.28c-4.2,0-7.41,3.08-7.41,6.79,0,3.09,1.86,5.56,4.32,5.56a1.58,1.58,0,0,0,1.73-1.6c0-1.62-2.13-2-2-4.41a3,3,0,0,1,3.09-2.64c3,0,4.34,2.87,4.34,5.83-.12,4.58-3.49,7.75-7.43,7.75-5.19,0-8.53-4.93-8.53-10.25,0-7.91,5.19-11,7.91-11.73,0,0,7.11,1.26,6.88-1.86-.1-1.37-2.14-1.9-3.61-2a10.22,10.22,0,0,0-3.3.53,4,4,0,0,1-1.82-2.28c5.06-3.83,8.64-7.53,8.64-11.73a4,4,0,0,0-4.32-4.2c-5.07,0-8.9,6.42-8.9,12.23A10.09,10.09,0,0,0,80.93,41c-3.22,2.34-5.61,3.8-9.92,6.4a22.14,22.14,0,0,1,.47-3.74C73,42,75,39.62,75,37.77a1.46,1.46,0,0,0-1.49-1.61c-2.47,0-4.32,3.71-4.81,6.3-1.11,1.37-3.34,3.1-5.19,3.1A2.26,2.26,0,0,1,61.4,43.7c4.7-1.61,10.5-8,10.5-13.84,0-1.23-.49-3.95-4.19-3.95-5.56,0-10.25,8.28-10.25,14.7-2,0-2.72-2.1-2.72-3.71a24.15,24.15,0,0,1,.62-3.7,1,1,0,0,0-1-1.11c-1.85,0-3,2.47-3,5.31a6.48,6.48,0,0,0,6.18,6.67,5.64,5.64,0,0,0,5.18,4.57,7.59,7.59,0,0,0,4.95-1.72c-.12.86-.24,1.6-.37,2.34-5.44,2.85-9.39,4.82-13,8-2.84,2.6-4.45,6.05-4.45,8.77,0,3.71,2.35,7.16,7.16,7.16,5.68,0,10-4.56,12.11-10.87,1-3,1.38-7.27,1.64-11.23A115.5,115.5,0,0,0,82.16,44a4.93,4.93,0,0,0,1.23,1.48,15.4,15.4,0,0,0-8.76,14.2c0,6.43,4.31,13.59,12.84,13.59A11.76,11.76,0,0,0,99.33,61.86c0-5.06-2.84-9.75-8.28-9.75m21.23,10.61s-.08.09-.22,0-.14-.09-.14-.16a33.38,33.38,0,0,0,1.48-9.5c0-5.45-2.22-8.79-5.05-8.79a2.89,2.89,0,0,0-3,3.1c0,3.33,4.07,3.58,4.07,10.87a28.75,28.75,0,0,1-1.6,8.89c-4.57,15.44-19.15,22.6-33.34,22.6-6.55,0-11.21-1.34-12.59-2a.19.19,0,0,1-.06-.24c0-.09.12-.15.18-.12a31.37,31.37,0,0,0,9.5,1.47c5.43,0,8.65-2.22,8.65-4.94a3.06,3.06,0,0,0-3.09-3.09c-3.34,0-3.59,4.2-10.75,4.2a29.51,29.51,0,0,1-9-1.61C42,78.78,34.72,64.33,34.73,50a41.12,41.12,0,0,1,2-12.59.19.19,0,0,1,.22,0,.18.18,0,0,1,.13.16A32.55,32.55,0,0,0,35.59,47c0,5.44,2.23,8.65,5.07,8.65a2.93,2.93,0,0,0,3-3c0-3.34-4.08-3.7-4.08-10.87a29.51,29.51,0,0,1,1.61-9C45.84,17.52,60.3,10.34,74.5,10.23a37.2,37.2,0,0,1,12.6,2.1.19.19,0,0,1,0,.22c0,.12-.13.13-.17.12a27.78,27.78,0,0,0-9.51-1.57c-5.31,0-8.65,2.21-8.65,5.06a3,3,0,0,0,3.09,3c3.34,0,3.58-4.07,10.75-4.07a29.48,29.48,0,0,1,9,1.6c15.45,4.69,22.47,19.27,22.6,33.35a38.56,38.56,0,0,1-2,12.72M74.5,7.51A42.49,42.49,0,1,0,117,50,42.49,42.49,0,0,0,74.5,7.51m0,87.08A44.59,44.59,0,1,1,119.09,50,44.57,44.57,0,0,1,74.5,94.59" style="fill:#3b73b9"/></g></g></svg>