<svg id="Layer_1" data-name="Layer 1" xmlns="http://www.w3.org/2000/svg" width="150" height="100" viewBox="0 0 150 100"><title>logo_hess</title><path d="M21.34,65.2V34.79c0-5.95.21-7,9.16-9.49a159.69,159.69,0,0,1,43.68-5.68V15H16.29V85H74.18V80.78A161.64,161.64,0,0,1,30.5,74.7c-8.95-2.52-9.16-3.54-9.16-9.5" style="fill:#00704a"/><path d="M128.66,65.2V34.79c0-5.95-.2-7-9.16-9.49a159.69,159.69,0,0,0-43.68-5.68V15h57.89V85H75.82V80.78A161.64,161.64,0,0,0,119.5,74.7c9-2.52,9.16-3.54,9.16-9.5" style="fill:#00704a"/><polyline points="44.36 37.32 44.36 46.79 33.53 46.79 33.53 37.32 26.96 37.32 26.96 62.62 33.53 62.62 33.53 53.12 44.36 53.12 44.36 62.62 50.93 62.62 50.93 37.32 44.36 37.32" style="fill:#00704a"/><path d="M73.77,43.65V37.32H58c-3.34,0-4.46.74-4.46,5.16v15c0,4.43,1.12,5.17,4.46,5.17H73.77V56.27H60V53.12H73.77V46.79H60V43.65H73.77" style="fill:#00704a"/><path d="M94.07,46.79H82.67V43.65H98V37.32H80.76c-3.55,0-4.54.82-4.54,5.19v5.64c0,5.07,1,5,4.54,5H92.17v3.15h-16v6.35H94.07c3.55,0,4.54-.82,4.54-5.19V51.92c0-5.08-1-5.13-4.54-5.13" style="fill:#00704a"/><path d="M118.5,46.79H107.09V43.65h15.35V37.32H105.19c-3.55,0-4.54.82-4.54,5.19v5.64c0,5.07,1,5,4.54,5h11.4v3.15h-16v6.35H118.5c3.55,0,4.54-.82,4.54-5.19V51.92c0-5.08-1-5.13-4.54-5.13" style="fill:#00704a"/></svg>