<svg id="Layer_1" data-name="Layer 1" xmlns="http://www.w3.org/2000/svg" width="150" height="100" viewBox="0 0 150 100"><title>logo_intuit</title><g id="Intuit_Logo" data-name="Intuit Logo"><path d="M98.15,69H94.58a1.2,1.2,0,0,1-1.33-1.11l-.06-1.39a14,14,0,0,1-8.85,3.17c-6.24,0-8.8-4-8.8-10V43.26c0-.94.56-1.28,1.44-1.28h3.9c.9,0,1.4.28,1.4,1.28v15.3c0,3.07.78,5.18,4.12,5.18a10.77,10.77,0,0,0,6.46-2.67V43.26c0-.94.5-1.28,1.39-1.28h4c.89,0,1.4.28,1.4,1.28V67.47C99.59,68.64,99.26,69,98.15,69Z" style="fill:#365ebf"/><path d="M7.53,43.09c0-.66.33-1.11,1-1.11h4.71a1,1,0,0,1,1.06,1.11V67.64c0,1-.45,1.39-1.4,1.39H9c-1,0-1.44-.39-1.44-1.39Z" style="fill:#365ebf"/><path d="M106.56,43.09a1,1,0,0,1,1-1.11h4.72a1,1,0,0,1,1,1.11V67.64c0,1-.44,1.39-1.39,1.39H108c-1,0-1.45-.39-1.45-1.39Z" style="fill:#365ebf"/><path d="M44.14,69h-4c-1,0-1.34-.5-1.34-1.45V52.44c0-3.06-.83-5.24-4.23-5.24A11,11,0,0,0,28,49.88V67.64c0,1-.39,1.39-1.34,1.39H22.6a1.2,1.2,0,0,1-1.34-1.33V43.38A1.21,1.21,0,0,1,22.65,42h3.62c.78,0,1.28.22,1.34,1l.05,1.49a14.59,14.59,0,0,1,9-3.23c6.23,0,8.79,3.9,8.79,10V67.58C45.48,68.53,45.15,69,44.14,69Z" style="fill:#365ebf"/><path d="M64,34.38a4.09,4.09,0,1,0-4.08,4.09A4.08,4.08,0,0,0,64,34.38Z" style="fill:#365ebf"/><path d="M69.8,42c.67,0,1.06.22,1.06,1v3.92a1,1,0,0,1-1.11,1.06H63.29V67.64c0,1-.44,1.39-1.45,1.39H58c-1,0-1.45-.39-1.45-1.39V47.91H50.07A1,1,0,0,1,49,46.85V42.93c0-.73.39-1,1.06-1Z" style="fill:#365ebf"/><path d="M133.09,34.38A4.09,4.09,0,1,0,129,38.47,4.08,4.08,0,0,0,133.09,34.38Z" style="fill:#365ebf"/><path d="M138.9,42c.67,0,1.06.22,1.06,1v3.92a1,1,0,0,1-1.12,1.06h-6.45V67.64c0,1-.44,1.39-1.45,1.39h-3.87c-1,0-1.45-.39-1.45-1.39V47.91h-6.45a1,1,0,0,1-1.12-1.06V42.93c0-.73.39-1,1.06-1Z" style="fill:#365ebf"/><path d="M140.67,65.6a1.81,1.81,0,1,1-1.82,1.79A1.79,1.79,0,0,1,140.67,65.6Zm0,3.34a1.54,1.54,0,1,0-1.49-1.55A1.49,1.49,0,0,0,140.67,68.94ZM140,66.35h.82c.5,0,.74.2.74.6a.54.54,0,0,1-.56.57l.6.94h-.35l-.57-.91h-.35v.91H140V66.35Zm.33.93h.34c.29,0,.56,0,.56-.34s-.24-.33-.46-.33h-.44v.67Z" style="fill:#365ebf"/></g></svg>