<svg id="Layer_1" data-name="Layer 1" xmlns="http://www.w3.org/2000/svg" width="150" height="100" viewBox="0 0 150 100"><title>logo_kelloggs</title><path d="M133.15,42.53c-2.23,0-4.25,1.79-6.76,3.88-2.3,1.92-7,6.76-11.32,9.52,1.2-1.89,4.09-6,4.52-7.87s-1-2.78-3-1.54c-2.2,1.36-4.3,7.88-7.41,7.88a.84.84,0,0,1-1-.91c0-1.91,3-5.72,8.28-7.81.82-.33,1.14-.86,1.14-1.32,0-.14,0-1.11-1.65-1.11-5.25,0-12.32,6.12-13.32,10.81a16.94,16.94,0,0,1-5.19,3.54c2.63-3.72,4.9-6.71,6.09-9.82,1.37-3.63-.58-4.1-2.59-3s-3.32,3.89-3.9,5a9.77,9.77,0,0,1-2.76,3.84c-1.72,1.38-3.5,1.14-2.24-1.54a14.91,14.91,0,0,1,5.82-6.08c.52-.28,1-.44,1-1.13,0-1.1-1.3-1.87-3.11-1.08C93.25,44.79,92.07,45.5,90,45.5a7,7,0,0,1-3.22-.74,2.81,2.81,0,0,0-2-.14,3.45,3.45,0,0,0-1.29.91,3.3,3.3,0,0,0-.71,1.41c-.49,2.94-3.06,8.21-4.95,8.21-.65,0-1.37-.18-1.19-1.68.3-2.46,3.27-5.79,4-6.45s2-1.12,2.07-1.86-.3-1.31-1.51-1.31c-4,0-9.34,5.54-9.87,10.52A3.46,3.46,0,0,1,69,55.51c-1.84,0-2.37-1.72-2.24-3.09C71.64,48,80.85,38.27,81.12,31.32c.07-1.66-.74-2.49-2.1-2.49-3.43,0-8.23,5-11.21,8.87a36.27,36.27,0,0,0-6.73,14.85C58.39,54.88,57.3,55,56.13,55A2,2,0,0,1,54,52.93C58.52,48.81,66.4,39,66.55,34.15c0-1.43-.76-2.11-2.21-2.11-3.09,0-7.47,3.26-10.61,7.55A30.83,30.83,0,0,0,48,53.52c-2.35,2.11-4.11,2.54-5.56,2.54a2.15,2.15,0,0,1-1.68-.87c2.09-1.2,6.83-4.22,6.83-8.71a3,3,0,0,0-3-3.23c-3.82,0-9.81,4.75-9.77,11.3,0,.12,0,.52,0,.67-1.72.59-2.91,1.2-2.64,2.44s1.65,1.06,3.47.42a5.69,5.69,0,0,0,4.71,2.06,12.26,12.26,0,0,0,8.07-3.37,5.48,5.48,0,0,0,5.21,3.08c2.71,0,5.38-1.83,7.49-3.49a4.82,4.82,0,0,0,4.55,4c2.49,0,4.39-1.45,5.89-3a3.8,3.8,0,0,0,3.74,2.83c6.3,0,9.83-8.92,10.65-12.12a.56.56,0,0,1,.76-.4,5.94,5.94,0,0,0,3.23.44c-2.4,1.88-4.51,5.1-4.51,7.45A3.46,3.46,0,0,0,89,58.94a7.91,7.91,0,0,0,4.75-2.17,9.27,9.27,0,0,1-1.54,2.49,39.29,39.29,0,0,0-7.87,3.34c-2.4,1.47-4.72,3.79-4.72,6.47,0,1.43,1.18,3.11,3.94,3.11,4.63,0,7.87-3,12.25-11A27.14,27.14,0,0,0,103,57a3.39,3.39,0,0,0,3,1.6,6.57,6.57,0,0,0,4.28-1.55,8.27,8.27,0,0,1-1,1.87A67.13,67.13,0,0,0,102,62.43c-4.25,2.56-5.2,4.86-5.2,6.66,0,1.11,1,3,3.82,3,6.19,0,10-7.71,12.52-12.06a57.26,57.26,0,0,0,7.14-4.84,3.65,3.65,0,0,0-.14,1.07c0,1.93,1.75,3.75,4.63,3.75,5.67,0,7.44-4.19,7.37-8.7,0-1.48-.25-2.65-.27-3.17,0-1.38.41-2.13,1.66-2.13s2.12-.22,2.12-1.3c0-1.5-1.06-2.17-2.51-2.17M76,34.57c.16,0,.23.14.22.36,0,1.78-4.62,9-8.86,13.15C69.89,40.59,75,34.57,76,34.57m-36.18,18c.19-3.19,2.72-5.65,3.71-5.65.37,0,.54.21.54.65,0,1.14-1.52,3.52-4.24,5M61.3,37.21c.19,0,.27.14.27.39,0,1.31-3.33,7.35-7.56,11.53,2.22-6.78,5.84-11.92,7.29-11.92M84.43,68.12a.47.47,0,0,1-.49-.52c0-1.95,4.31-4.24,6.57-5.07-1,1.58-4.55,5.59-6.08,5.59m17.24.1c-.31,0-.43-.19-.43-.5,0-1.71,3.9-4.36,6.16-5.19-1.17,2-4.43,5.69-5.73,5.69m23.54-12.33c-.28,0-.69-.07-.69-1a1.31,1.31,0,0,0-1.47-1.4,2.62,2.62,0,0,0-.53.05c2.48-2,4.42-4.13,6.22-5.59-.37,4.47-1.43,7.92-3.54,7.92" style="fill:#d31245"/><path d="M123,41.7c-.08.78-1,1.14-1,1.84,0,.41.24.68.75.67,1.3,0,4.78-2,5.09-5.15a2.54,2.54,0,0,0-2.56-3,3.75,3.75,0,0,0-3.46,3c-.14,1.34,1.29,1.83,1.21,2.59M32.49,63.76c-1.11-.06-1.64-1.39-1.64-3,0-1.77,1.15-5.61,1.6-7.43s.66-4.81-1-6.51C37.76,44.27,47.1,35.62,48.3,33.74s1.44-4.3-.22-5.5-4.35.37-5.94,2.66c-4.39,6.33-7,9.42-10,12-2.33,2-3.46,2.06-4.58,2.21,0,0,4.3-7.05,5.91-9.17,1.93-2.53-.45-3.47-2.75-1.87a84.71,84.71,0,0,1-8.53,5.12c-7.87,4.06-9.76,5.93-9.76,8.36A2.36,2.36,0,0,0,14.73,50c3.08,0,6.13-5.51,7.63-6.88.58-.54,1.92-1.71,2.45-1.71.17,0,.29.11.29.43,0,1.06-2.05,4-5.22,7.48-4.6,5-8.37,7-8.37,10.14a3.09,3.09,0,0,0,3.24,3.19c3.54,0,5.91-4.73,7.33-7.08.57-.93,3.7-6.76,4.35-8,.69.36,1.11,1.12.89,2.67-.42,2.78-2.9,6.15-2.9,10.84a5.08,5.08,0,0,0,5,5c1.31,0,3-.51,3.48-1.82a.41.41,0,0,0-.36-.55M137.28,42a1.21,1.21,0,1,1-1.22,1.21A1.13,1.13,0,0,1,137.28,42m0,2.13a.92.92,0,1,0-.91-.92.86.86,0,0,0,.91.92m.08-1.54a.37.37,0,0,1,.15.71c.08.12.15.29.25.29h.07a.13.13,0,0,1,0,.09c0,.08-.07.14-.19.14s-.26-.28-.42-.48h-.14v.46a.32.32,0,0,1-.15,0c-.08,0-.14,0-.14-.13V42.56a.28.28,0,0,1,.14,0Zm-.25.22v.31h.18c.13,0,.2-.06.2-.16a.15.15,0,0,0-.17-.15Z" style="fill:#d31245"/></svg>