<?xml version="1.0" encoding="UTF-8"?>
<svg width="150px" height="41px" viewBox="0 0 150 41" version="1.1" xmlns="http://www.w3.org/2000/svg" xmlns:xlink="http://www.w3.org/1999/xlink">
    <title>Netflix_Logo</title>
    <g id="Logo-Primary" stroke="none" stroke-width="1" fill="none" fill-rule="evenodd">
        <g id="Netflix_Logo" fill="#E50914">
            <path d="M99.8021374,-3.00493844e-13 L93.4857393,-3.00493844e-13 L93.4857393,35.3327471 C99.2263139,35.530296 104.942817,35.8199431 110.635879,36.1995859 L110.635879,29.9746428 C107.034828,29.7344091 103.423266,29.5306573 99.8021374,29.3621258 L99.8021374,-3.00493844e-13 Z M150,0.0035745928 L143.062053,0.0035745928 L138.488157,10.6065528 L134.378767,0.0035745928 L127.544884,0.0035745928 L134.888683,18.9496524 L126.871409,37.5363785 C129.089348,37.7526413 131.301507,37.9836231 133.510722,38.2275365 L138.173336,27.4205962 L142.791065,39.3336627 C145.196321,39.6429701 147.595795,39.9657348 149.990224,40.307529 L150,40.3034287 L141.771654,19.0776018 L150,0.0035745928 Z M71.8035389,35.0239654 L78.1201472,35.0225986 L78.1201472,20.6502123 L86.6825508,20.6502123 L86.6825508,14.4252692 L78.1201472,14.4252692 L78.1201472,6.28476495 L89.4370007,6.28476495 L89.4370007,0.00388999805 L71.8035389,0.00388999805 L71.8035389,35.0239654 Z M48.2156973,6.28434441 L54.8266293,6.28434441 L54.8266293,35.3940409 C56.9285214,35.3146639 59.0348283,35.2492699 61.1432376,35.1939688 L61.1432376,6.28434441 L67.7539594,6.28434441 L67.7539594,0.0035745928 L48.2156973,0.0035745928 L48.2156973,6.28434441 Z M26.6207428,37.2033105 C32.4425718,36.6741657 38.2912053,36.2380653 44.1664331,35.8995304 L44.1664331,29.6739565 C40.4125438,29.8909553 36.6694814,30.1478003 32.937246,30.4413374 L32.937246,21.0170286 C35.3861247,20.9925322 38.6106517,20.9177811 41.4673791,20.9533168 L41.4673791,14.727848 C39.1852137,14.722381 35.5170988,14.7598091 32.937246,14.7928215 L32.937246,6.28476495 L44.1664331,6.28476495 L44.1664331,0.00388999805 L26.6207428,0.00388999805 L26.6207428,37.2033105 Z M14.230028,22.812105 L6.00325858,0.0035745928 L0,0.0035745928 L0,40.30837 C2.10157673,40.0091556 4.20693763,39.7226625 6.31660827,39.4477343 L6.31660827,17.5302236 L13.6317099,38.5478831 C15.9324807,38.2810503 18.2373511,38.0282004 20.5467414,37.7907002 L20.5467414,0.0035745928 L14.230028,0.0035745928 L14.230028,22.812105 Z M115.843413,36.5742873 C117.951927,36.7357748 120.057288,36.9089323 122.160021,37.0960727 L122.160021,0.0035745928 L115.843413,0.0035745928 L115.843413,36.5742873 Z" id="Fill-1"></path>
        </g>
    </g>
</svg>