<svg id="Layer_1" data-name="Layer 1" xmlns="http://www.w3.org/2000/svg" width="150" height="100" viewBox="0 0 150 100"><title>logo_philips</title><g id="g2853"><path id="path2859" d="M51.73,37.26H44V47.39H35.86V37.26H28.08V62.74h7.78v-10H44v10h7.78ZM78.78,57.62V37.26H71V62.74H85.07l1.17-5.12ZM65.26,37.26H57.48V62.74h7.78Zm31.52,0H89V62.74h7.77Zm38.34,6.5c0-1.38,1.39-2,3.63-2A19.44,19.44,0,0,1,145.67,43L145,37.47a30.74,30.74,0,0,0-7.13-.74c-6.29,0-10.55,2.48-10.55,7.67,0,9,12.15,7.15,12.15,11.3,0,1.6-1.18,2.45-4.05,2.45a23.26,23.26,0,0,1-8.84-2l.85,5.86a25.53,25.53,0,0,0,8.1,1.28c6.49,0,11.82-2.13,11.82-8.53,0-8.52-12.26-6.93-12.26-11m-21.93,12.9c7.24,0,11.82-3.73,11.82-10.23,0-7.14-4.9-9.7-12.89-9.7a87.45,87.45,0,0,0-9.48.53V62.74h7.78V56.66Zm4.15-10.12c0,3.3-1.6,5.54-5.65,5.54h-1.27V41.55c.45,0,.87,0,1.27,0,3.84,0,5.65,1.81,5.65,5M13.17,56.66C20.41,56.66,25,52.93,25,46.43c0-7.14-4.9-9.7-12.88-9.7a87.64,87.64,0,0,0-9.49.53V62.74H10.4V56.66Zm4.16-10.12c0,3.3-1.6,5.54-5.65,5.54H10.4V41.55c.45,0,.88,0,1.28,0,3.83,0,5.65,1.81,5.65,5" style="fill:#0b5ed7"/></g></svg>