<svg id="Layer_1" data-name="Layer 1" xmlns="http://www.w3.org/2000/svg" width="150" height="100" viewBox="0 0 150 100"><title>logo_workday</title><g id="g10"><g id="g12"><path id="path14" d="M76.56,23.15A38.33,38.33,0,0,1,113,45.89a2.45,2.45,0,0,1,.28,1.56,2.15,2.15,0,0,1-4.11.4A34,34,0,0,0,85.69,28.17,34,34,0,0,0,51.54,39.8a33.76,33.76,0,0,0-4.87,8.06,2.14,2.14,0,0,1-4-1.54A38.25,38.25,0,0,1,76.56,23.15h0" style="fill:#f49813"/><path id="path16" d="M70.21,48a.75.75,0,0,1,.76-.74h1.54c.35,0,.77.25.76.65,0,4.68,0,9.36,0,14.05q2.85-3.16,5.71-6.31c.38-.37.68-.93,1.26-1,.79,0,1.57,0,2.36,0,.3,0,.64.25.54.57a3.21,3.21,0,0,1-.54.62c-2.06,2.06-4.13,4.11-6.18,6.17,2,2.26,3.93,4.55,5.9,6.81a11.69,11.69,0,0,1,.79.95.46.46,0,0,1-.4.63c-.66,0-1.31,0-2,0a2.2,2.2,0,0,1-1-.13,3.26,3.26,0,0,1-.76-.81l-5.69-7.18c0,2.35,0,4.71,0,7.06,0,.27,0,.6-.19.8-.37.36-.94.24-1.41.26s-.9.08-1.24-.23a.73.73,0,0,1-.23-.62q0-10.79,0-21.58h0" style="fill:#3069b5"/><path id="path18" d="M61.56,54.58a4.19,4.19,0,0,1,3,0c.33.15.71.48.56.88s-.28,1-.46,1.52a.76.76,0,0,1-.89.42,12.71,12.71,0,0,0-2.37-.37,2.05,2.05,0,0,0-1.46.68,4.23,4.23,0,0,0-1.09,2.3,11.41,11.41,0,0,0-.09,1.85c0,2.58,0,5.16,0,7.75,0,.42-.4.71-.78.73s-1,0-1.58,0-.81-.3-.76-.72c0-4.79,0-9.57,0-14.36,0-.47.5-.73.91-.69s1.23-.16,1.56.37.38,1.25.62,1.87a5.92,5.92,0,0,1,2.87-2.26h0" style="fill:#3069b5"/><path id="path20" d="M7.85,54.94a.71.71,0,0,1,.56-.33c.72,0,1.43,0,2.15,0a.74.74,0,0,1,.66.67c.71,2.85,1.4,5.71,2.1,8.57.2.88.45,1.76.58,2.65s.17,1.63.3,2.44a30.25,30.25,0,0,1,.65-3.44q1.38-5.12,2.75-10.23a.84.84,0,0,1,.82-.67c.8,0,1.59,0,2.39,0a1,1,0,0,1,1,.66c.68,2.49,1.35,5,2,7.47A42.35,42.35,0,0,1,25,67.59c.07.45.13.91.22,1.36a69.19,69.19,0,0,1,1.48-7.67c.45-2,.89-4.05,1.35-6.07a.82.82,0,0,1,.88-.6c.64,0,1.29,0,1.93,0a.56.56,0,0,1,.47.77L27.48,69.68a.84.84,0,0,1-.79.69c-1,0-2,0-3,0a.72.72,0,0,1-.79-.55c-.9-3.27-1.77-6.55-2.65-9.83a22.92,22.92,0,0,1-.59-3.49,28,28,0,0,1-.52,3.13q-1.37,5.05-2.72,10.12c-.11.55-.73.66-1.2.62-.92,0-1.85,0-2.78,0a.67.67,0,0,1-.64-.57L7.9,55.57a4.46,4.46,0,0,1-.05-.63h0" style="fill:#3069b5"/><path id="path22" d="M124.75,54.62c.68,0,1.36,0,2,0a1,1,0,0,1,.93.68q1.76,4.58,3.5,9.17a9.92,9.92,0,0,1,.52,1.92c.48-1.81,1.13-3.57,1.69-5.36l1.89-5.81a.85.85,0,0,1,.75-.59c.56,0,1.11,0,1.67,0a1.23,1.23,0,0,1,1,.23.45.45,0,0,1,.06.53q-2.81,8-5.59,16a12.77,12.77,0,0,1-1.1,2.61,6.34,6.34,0,0,1-3.3,2.57c-.46.14-.94.46-1.44.28s-.5-.46-.69-.73-.38-.47-.33-.78a.73.73,0,0,1,.56-.63,4.65,4.65,0,0,0,1.58-.81,6.41,6.41,0,0,0,2.06-3.73c-.18-.63-.51-1.2-.74-1.81q-2.67-6.21-5.35-12.41a3.18,3.18,0,0,1-.3-.83c0-.32.38-.46.65-.47h0" style="fill:#3069b5"/><path id="path24" d="M41.71,56.62a3.46,3.46,0,0,0-2.35,1.65,8.68,8.68,0,0,0-.88,4.66,7.06,7.06,0,0,0,1.2,4.13,3.61,3.61,0,0,0,2.9,1.29,3.67,3.67,0,0,0,2.85-1.12,6.21,6.21,0,0,0,1.33-3.67,12.89,12.89,0,0,0-.25-3.82,4.18,4.18,0,0,0-1.78-2.67A4.51,4.51,0,0,0,41.71,56.62Zm.41-2.27a7.83,7.83,0,0,1,5.05,1.3,6.9,6.9,0,0,1,2.59,3.87,11.41,11.41,0,0,1,.05,5.6,7.05,7.05,0,0,1-2.88,4.23,8,8,0,0,1-5.4,1.1,7,7,0,0,1-4.21-2,8.18,8.18,0,0,1-2.07-5.05,9.53,9.53,0,0,1,1.29-6,6.6,6.6,0,0,1,3.66-2.71,8.41,8.41,0,0,1,1.92-.34h0" style="fill:#3069b5"/><path id="path26" d="M94,56.54A2.78,2.78,0,0,0,91.65,58a10.81,10.81,0,0,0-.81,5.31,8.38,8.38,0,0,0,.73,3.43,2.78,2.78,0,0,0,1.83,1.45,3.63,3.63,0,0,0,3.5-.91,6.1,6.1,0,0,0,1.23-3.45,13.78,13.78,0,0,0-.25-4.15,4.83,4.83,0,0,0-1.36-2.44A3.29,3.29,0,0,0,94,56.54Zm4.14-8.78c0-.37.36-.6.68-.63.52,0,1,0,1.57,0a.74.74,0,0,1,.79.74V69.53a.71.71,0,0,1-.69.69,10.44,10.44,0,0,1-1.25,0,.76.76,0,0,1-.67-.48c-.16-.47-.24-1-.36-1.44A5.1,5.1,0,0,1,96,70.11a7.13,7.13,0,0,1-4.14.16,5,5,0,0,1-3.21-2.49,12.05,12.05,0,0,1-1.09-6.19,8.19,8.19,0,0,1,1.55-5.1,5.47,5.47,0,0,1,3.78-2.08,5.39,5.39,0,0,1,4,.85,6.1,6.1,0,0,1,1.33,1.4c0-3,0-5.93,0-8.9h0" style="fill:#3069b5"/><path id="path28" d="M112.71,56.63a3.3,3.3,0,0,0-1.34.59A4.3,4.3,0,0,0,110,59.74a15.3,15.3,0,0,0-.14,4.53,5.32,5.32,0,0,0,1.24,3.11,4,4,0,0,0,5.28-.22,6.35,6.35,0,0,0,1.16-3.51,13.35,13.35,0,0,0-.33-4.32,3.85,3.85,0,0,0-1.52-2.23A4.2,4.2,0,0,0,112.71,56.63Zm-1.34-2a8.77,8.77,0,0,1,4.29-.09A5.83,5.83,0,0,1,119,56.68a8.11,8.11,0,0,1,1.46,3.87,22.91,22.91,0,0,1,.11,3.21c0,1.93,0,3.85,0,5.78a.62.62,0,0,1-.32.57,2.18,2.18,0,0,1-1.08.13c-.41,0-.94,0-1.16-.39a11.27,11.27,0,0,1-.4-1.57A5.9,5.9,0,0,1,115.7,70a6.59,6.59,0,0,1-7.77-2.27,9.32,9.32,0,0,1-1.43-5.33,9.33,9.33,0,0,1,1.35-5.21,6.11,6.11,0,0,1,3.52-2.55h0" style="fill:#3069b5"/><path id="path30" d="M139.41,66.5a1.76,1.76,0,0,0,1.18,3.31,1.76,1.76,0,1,0-1.18-3.31Zm.11-.42a2.38,2.38,0,0,1,1.42.14,2,2,0,0,1,1.2,2,2.06,2.06,0,0,1-1.73,2,2.13,2.13,0,0,1-.89-4.16h0" style="fill:#3069b5"/><path id="path32" d="M139.74,67.29c0,.23,0,.45,0,.68a2.88,2.88,0,0,0,.59,0c.19-.08.17-.31.12-.47S140,67.31,139.74,67.29Zm-.6-.37a3.74,3.74,0,0,1,1.73.19.68.68,0,0,1-.26,1.14c.14.35.32.69.49,1h-.64l-.45-1h-.27v1h-.6V66.92h0" style="fill:#3069b5"/></g></g></svg>