<svg width="338" height="324" viewBox="0 0 338 324" fill="none" xmlns="http://www.w3.org/2000/svg">
<path d="M61.68 207.64H0.830002V180.17L61.68 107.83H90.8V181.73H105.89V207.64H90.8V230.12H61.68V207.64ZM61.68 181.73V143.89L29.52 181.73H61.68Z" fill="#E47911"/>
<path d="M116.3 169.51C116.3 146.65 120.413 130.65 128.64 121.51C136.867 112.37 149.403 107.803 166.25 107.81C174.337 107.81 180.98 108.81 186.18 110.81C190.904 112.512 195.229 115.163 198.89 118.6C201.976 121.546 204.589 124.949 206.64 128.69C208.669 132.596 210.198 136.742 211.19 141.03C213.451 150.191 214.579 159.594 214.55 169.03C214.55 190.843 210.86 206.807 203.48 216.92C196.1 227.033 183.39 232.093 165.35 232.1C155.23 232.1 147.053 230.487 140.82 227.26C134.537 223.981 129.244 219.082 125.49 213.07C122.59 208.643 120.333 202.587 118.72 194.9C117.045 186.542 116.234 178.034 116.3 169.51V169.51ZM149.44 169.59C149.44 184.923 150.79 195.38 153.49 200.96C156.19 206.54 160.113 209.343 165.26 209.37C166.893 209.388 168.514 209.082 170.028 208.469C171.542 207.856 172.919 206.949 174.08 205.8C176.573 203.42 178.407 199.66 179.58 194.52C180.753 189.38 181.34 181.38 181.34 170.52C181.34 154.56 179.987 143.83 177.28 138.33C174.573 132.83 170.513 130.083 165.1 130.09C159.58 130.09 155.58 132.893 153.1 138.5C150.62 144.107 149.4 154.47 149.44 169.59Z" fill="#E47911"/>
<path d="M285.74 207.64H224.89V180.17L285.74 107.83H314.86V181.73H330V207.64H314.86V230.12H285.74V207.64ZM285.74 181.73V143.89L253.59 181.73H285.74Z" fill="#E47911"/>
<path opacity="0.2" d="M308.1 107.83C281.21 126 246.4 150 236.79 207.64H234.74C244.09 150.64 277.63 126.07 304.53 107.83H308.1Z" fill="black"/>
<path d="M169 288.27C152 288.27 135.19 280.6 127 268.08C121.95 260.34 116.08 244.13 133.56 222.5L135.11 223.76C122.75 239.06 120.47 254.41 128.68 266.99C138.68 282.29 162.27 289.99 182.41 284.51C203.04 278.9 215.56 260.96 216.77 235.29C220.9 147.48 267.55 120.43 301.61 100.68C322.78 88.41 338.07 79.55 334.71 60.84C334.24 58.25 333.21 56.46 331.54 55.36C327.19 52.49 318.69 54.48 308.85 56.77C289.54 61.27 263.1 67.43 247.35 40.64L249.08 39.64C264.08 65.17 288.65 59.44 308.4 54.84C318.69 52.45 327.57 50.38 332.64 53.71C334.79 55.12 336.11 57.35 336.64 60.51C340.25 80.59 323.64 90.23 302.59 102.43C268.92 121.95 222.82 148.68 218.74 235.43C217.48 262.03 204.42 280.64 182.9 286.49C178.366 287.697 173.692 288.296 169 288.27Z" fill="#E47911"/>
<path opacity="0.2" d="M169 288.27C152 288.27 135.19 280.6 127 268.08C121.95 260.34 116.08 244.13 133.56 222.5L135.11 223.76C122.75 239.06 120.47 254.41 128.68 266.99C138.68 282.29 162.27 289.99 182.41 284.51C203.04 278.9 215.56 260.96 216.77 235.29C220.9 147.48 267.55 120.43 301.61 100.68C322.78 88.41 338.07 79.55 334.71 60.84C334.24 58.25 333.21 56.46 331.54 55.36C327.19 52.49 318.69 54.48 308.85 56.77C289.54 61.27 263.1 67.43 247.35 40.64L249.08 39.64C264.08 65.17 288.65 59.44 308.4 54.84C318.69 52.45 327.57 50.38 332.64 53.71C334.79 55.12 336.11 57.35 336.64 60.51C340.25 80.59 323.64 90.23 302.59 102.43C268.92 121.95 222.82 148.68 218.74 235.43C217.48 262.03 204.42 280.64 182.9 286.49C178.366 287.697 173.692 288.296 169 288.27Z" fill="white"/>
<path d="M226.76 17C231.368 17.0266 235.945 17.7446 240.34 19.13C240.34 19.13 251.34 37.9 252.64 42.2C252.18 46.44 245.03 53.39 245.03 53.39L226.76 17Z" fill="#E47911"/>
<path opacity="0.3" d="M226.76 17C231.368 17.0266 235.945 17.7446 240.34 19.13C240.34 19.13 251.34 37.9 252.64 42.2C252.18 46.44 245.03 53.39 245.03 53.39L226.76 17Z" fill="white"/>
<path d="M259.34 108.13C255.104 102.95 251.241 97.4766 247.78 91.75C246.94 90.3033 246.143 88.83 245.39 87.33C244.96 86.48 244.55 85.63 244.15 84.77C243.625 83.9331 243.218 83.028 242.94 82.08C241.74 69.41 246.08 60.08 241.94 49.91L225.46 56.35C225.46 56.35 226.86 74.47 230.06 85.35C232.06 92.08 236.54 97.9 240.87 103.29C242.22 104.97 243.52 106.7 244.87 108.39C246.22 110.08 247.58 111.45 248.87 113.04C250.82 115.45 251.46 117.76 249.99 120.6L249.74 121.05C249.32 121.79 251.28 122.63 252.52 121.05C254.52 118.47 254.24 118.63 255.98 116.43C257.04 115.1 258.25 113.65 259.3 112.43C259.806 111.83 260.088 111.072 260.095 110.287C260.102 109.502 259.835 108.739 259.34 108.13V108.13Z" fill="#E47911"/>
<path opacity="0.7" d="M259.34 108.13C255.104 102.95 251.241 97.4766 247.78 91.75C246.94 90.3033 246.143 88.83 245.39 87.33C244.96 86.48 244.55 85.63 244.15 84.77C243.625 83.9331 243.218 83.028 242.94 82.08C241.74 69.41 246.08 60.08 241.94 49.91L225.46 56.35C225.46 56.35 226.86 74.47 230.06 85.35C232.06 92.08 236.54 97.9 240.87 103.29C242.22 104.97 243.52 106.7 244.87 108.39C246.22 110.08 247.58 111.45 248.87 113.04C250.82 115.45 251.46 117.76 249.99 120.6L249.74 121.05C249.32 121.79 251.28 122.63 252.52 121.05C254.52 118.47 254.24 118.63 255.98 116.43C257.04 115.1 258.25 113.65 259.3 112.43C259.806 111.83 260.088 111.072 260.095 110.287C260.102 109.502 259.835 108.739 259.34 108.13V108.13Z" fill="white"/>
<path opacity="0.3" d="M255.31 102.92C252.695 105.723 249.792 108.244 246.65 110.44C247.08 110.92 247.5 111.44 247.93 111.9C251.076 109.775 253.933 107.25 256.43 104.39L255.31 102.92Z" fill="#E47911"/>
<path opacity="0.3" d="M259.34 108.13L259.22 107.99C258.451 108.873 258.003 109.99 257.95 111.16C257.886 111.963 258.016 112.769 258.33 113.51L259.28 112.38C259.777 111.786 260.054 111.04 260.065 110.266C260.075 109.492 259.82 108.738 259.34 108.13V108.13Z" fill="#E47911"/>
<path d="M222.84 29C221.053 31.6751 218.91 34.0941 216.47 36.19C215.117 37.3564 213.634 38.363 212.05 39.19C211.218 39.6163 210.356 39.9806 209.47 40.28L208.79 40.5L208.57 40.56L208.1 40.69C207.811 40.7587 207.516 40.8055 207.22 40.83C206.376 40.8945 205.528 40.8168 204.71 40.6C203.679 40.3073 202.69 39.8803 201.77 39.33C201.03 38.8972 200.312 38.4266 199.62 37.92C198.37 36.99 197.174 35.9884 196.04 34.92C193.853 32.8475 191.845 30.5927 190.04 28.18C189.692 27.71 189.52 27.1334 189.552 26.5496C189.584 25.9659 189.819 25.4117 190.216 24.9826C190.613 24.5535 191.147 24.2765 191.727 24.1994C192.306 24.1222 192.895 24.2498 193.39 24.56H193.47C195.83 26.06 198.21 27.64 200.53 29.05C201.71 29.74 202.85 30.44 203.98 30.98C204.496 31.2501 205.027 31.4905 205.57 31.7C205.908 31.8494 206.271 31.9375 206.64 31.96C206.7 31.96 206.64 31.89 206.27 31.9C206.153 31.893 206.037 31.893 205.92 31.9L205.7 31.95L206.03 31.78C206.474 31.5409 206.905 31.2772 207.32 30.99C208.215 30.3591 209.051 29.6497 209.82 28.87C211.567 27.0392 213.203 25.1058 214.72 23.08C215.551 22.1503 216.699 21.5646 217.94 21.438C219.181 21.3113 220.424 21.6527 221.425 22.3953C222.427 23.1378 223.115 24.228 223.355 25.4517C223.594 26.6755 223.368 27.9446 222.72 29.01L222.84 29Z" fill="#E47911"/>
<path opacity="0.7" d="M222.84 29C221.053 31.6751 218.91 34.0941 216.47 36.19C215.117 37.3564 213.634 38.363 212.05 39.19C211.218 39.6163 210.356 39.9806 209.47 40.28L208.79 40.5L208.57 40.56L208.1 40.69C207.811 40.7587 207.516 40.8055 207.22 40.83C206.376 40.8945 205.528 40.8168 204.71 40.6C203.679 40.3073 202.69 39.8803 201.77 39.33C201.03 38.8972 200.312 38.4266 199.62 37.92C198.37 36.99 197.174 35.9884 196.04 34.92C193.853 32.8475 191.845 30.5927 190.04 28.18C189.692 27.71 189.52 27.1334 189.552 26.5496C189.584 25.9659 189.819 25.4117 190.216 24.9826C190.613 24.5535 191.147 24.2765 191.727 24.1994C192.306 24.1222 192.895 24.2498 193.39 24.56H193.47C195.83 26.06 198.21 27.64 200.53 29.05C201.71 29.74 202.85 30.44 203.98 30.98C204.496 31.2501 205.027 31.4905 205.57 31.7C205.908 31.8494 206.271 31.9375 206.64 31.96C206.7 31.96 206.64 31.89 206.27 31.9C206.153 31.893 206.037 31.893 205.92 31.9L205.7 31.95L206.03 31.78C206.474 31.5409 206.905 31.2772 207.32 30.99C208.215 30.3591 209.051 29.6497 209.82 28.87C211.567 27.0392 213.203 25.1058 214.72 23.08C215.551 22.1503 216.699 21.5646 217.94 21.438C219.181 21.3113 220.424 21.6527 221.425 22.3953C222.427 23.1378 223.115 24.228 223.355 25.4517C223.594 26.6755 223.368 27.9446 222.72 29.01L222.84 29Z" fill="white"/>
<path d="M186.29 22.42L187.46 24.42C187.46 24.42 188.35 27.04 190.14 27.52L195 25.95L194.75 25.54C194.13 24.6 194.2 22.77 194.41 21.25C194.62 19.73 193.84 19.68 193.26 20.06C192.849 20.5328 192.56 21.0995 192.42 21.71C192.181 21.3798 191.917 21.0688 191.63 20.78L190.15 19.3C189.84 18.9965 189.426 18.8217 188.992 18.8106C188.558 18.7994 188.136 18.9528 187.81 19.24L186.61 20.31C186.325 20.5733 186.139 20.9256 186.08 21.309C186.022 21.6924 186.096 22.0841 186.29 22.42V22.42Z" fill="#E47911"/>
<path opacity="0.7" d="M186.29 22.42L187.46 24.42C187.46 24.42 188.35 27.04 190.14 27.52L195 25.95L194.75 25.54C194.13 24.6 194.2 22.77 194.41 21.25C194.62 19.73 193.84 19.68 193.26 20.06C192.849 20.5328 192.56 21.0995 192.42 21.71C192.181 21.3798 191.917 21.0688 191.63 20.78L190.15 19.3C189.84 18.9965 189.426 18.8217 188.992 18.8106C188.558 18.7994 188.136 18.9528 187.81 19.24L186.61 20.31C186.325 20.5733 186.139 20.9256 186.08 21.309C186.022 21.6924 186.096 22.0841 186.29 22.42V22.42Z" fill="white"/>
<path d="M231.67 15.22C226.279 16.6489 221.116 18.8267 216.33 21.69C215.583 22.1573 214.997 22.8416 214.651 23.6512C214.304 24.4609 214.213 25.3572 214.39 26.22C216.32 35.66 220.71 48.3 225.45 56.35L247.56 47.2C247.71 43.3 242.34 30.68 236.87 18.48C235.89 16.29 234 14.66 231.67 15.22Z" fill="#E47911"/>
<path opacity="0.8" d="M231.67 15.22C226.279 16.6489 221.116 18.8267 216.33 21.69C215.583 22.1573 214.997 22.8416 214.651 23.6512C214.304 24.4609 214.213 25.3572 214.39 26.22C216.32 35.66 220.71 48.3 225.45 56.35L247.56 47.2C247.71 43.3 242.34 30.68 236.87 18.48C235.89 16.29 234 14.66 231.67 15.22Z" fill="white"/>
<path opacity="0.3" d="M240.3 26.21L235.91 24.74C236.91 27.31 240.44 30.56 242.91 32.47C242.11 30.47 241.22 28.37 240.3 26.21Z" fill="#E47911"/>
<path d="M230.22 5.32001C228.39 1.84001 224.44 0.0900121 219.7 0.480012C215.7 0.820012 212.16 4.90001 212.58 7.10001C213 9.30001 216.36 10.24 217 11L214.23 13C213.902 13.2369 213.625 13.5376 213.416 13.8843C213.207 14.2309 213.071 14.6162 213.015 15.017C212.959 15.4178 212.984 15.8258 213.09 16.2164C213.196 16.607 213.379 16.9722 213.63 17.29C214.8 18.77 216.34 20.29 217.23 21.41C224.89 21.21 230.56 18.29 232.61 15.48C231.84 11.92 232 8.78001 230.22 5.32001Z" fill="#E47911"/>
<path opacity="0.8" d="M230.22 5.32001C228.39 1.84001 224.44 0.0900121 219.7 0.480012C215.7 0.820012 212.16 4.90001 212.58 7.10001C213 9.30001 216.36 10.24 217 11L214.23 13C213.902 13.2369 213.625 13.5376 213.416 13.8843C213.207 14.2309 213.071 14.6162 213.015 15.017C212.959 15.4178 212.984 15.8258 213.09 16.2164C213.196 16.607 213.379 16.9722 213.63 17.29C214.8 18.77 216.34 20.29 217.23 21.41C224.89 21.21 230.56 18.29 232.61 15.48C231.84 11.92 232 8.78001 230.22 5.32001Z" fill="white"/>
<path d="M226.46 7.48001C227.004 8.87462 227.122 10.3991 226.799 11.8609C226.477 13.3226 225.728 14.6559 224.648 15.6923C223.568 16.7286 222.205 17.4215 220.731 17.6833C219.257 17.9452 217.739 17.7642 216.368 17.1632C214.997 16.5623 213.835 15.5684 213.029 14.3072C212.223 13.046 211.809 11.5741 211.839 10.0775C211.869 8.58091 212.342 7.12687 213.198 5.89917C214.055 4.67146 215.256 3.72521 216.65 3.18001C218.521 2.45104 220.605 2.49441 222.445 3.30062C224.284 4.10682 225.728 5.60997 226.46 7.48001V7.48001Z" fill="#263238"/>
<path d="M291.39 97.6C291.28 94.31 291.13 94.6 291.04 91.83C290.98 90.13 290.97 88.24 290.96 86.61C290.957 85.8359 290.686 85.0868 290.194 84.4891C289.702 83.8915 289.019 83.4821 288.26 83.33C286.94 83.06 285.61 82.81 284.26 82.53C282.53 82.16 280.82 81.76 279.13 81.27C277.81 80.89 276.51 80.47 275.22 80C273.93 79.53 272.48 79 271.14 78.38C269.56 77.71 268 76.99 266.46 76.24C264.73 75.42 263.02 74.56 261.31 73.69C254.73 62.8 254.59 55.62 247.53 47.2L232.37 54.06C232.37 54.06 243.51 73.82 251.09 82.2C255.46 87.02 262.31 89.2 268.42 90.78C272.83 91.91 277.3 92.78 281.77 93.61C283.51 93.93 285.4 94.05 286.9 95.09C288.01 95.9409 288.771 97.1677 289.04 98.54C289.107 98.82 289.167 99.1 289.22 99.38C289.41 100.22 291.46 99.58 291.39 97.6Z" fill="#E47911"/>
<path opacity="0.8" d="M291.39 97.6C291.28 94.31 291.13 94.6 291.04 91.83C290.98 90.13 290.97 88.24 290.96 86.61C290.957 85.8359 290.686 85.0868 290.194 84.4891C289.702 83.8915 289.019 83.4821 288.26 83.33C286.94 83.06 285.61 82.81 284.26 82.53C282.53 82.16 280.82 81.76 279.13 81.27C277.81 80.89 276.51 80.47 275.22 80C273.93 79.53 272.48 79 271.14 78.38C269.56 77.71 268 76.99 266.46 76.24C264.73 75.42 263.02 74.56 261.31 73.69C254.73 62.8 254.59 55.62 247.53 47.2L232.37 54.06C232.37 54.06 243.51 73.82 251.09 82.2C255.46 87.02 262.31 89.2 268.42 90.78C272.83 91.91 277.3 92.78 281.77 93.61C283.51 93.93 285.4 94.05 286.9 95.09C288.01 95.9409 288.771 97.1677 289.04 98.54C289.107 98.82 289.167 99.1 289.22 99.38C289.41 100.22 291.46 99.58 291.39 97.6Z" fill="white"/>
<path opacity="0.3" d="M283.7 82.4C283.1 82.27 282.5 82.14 281.89 81.99C281.94 85.45 280.32 91.41 279.73 93.22L281.63 93.58C282.875 89.9778 283.573 86.2092 283.7 82.4V82.4Z" fill="#E47911"/>
<path opacity="0.3" d="M291 86.61C290.997 85.8374 290.728 85.0893 290.238 84.4919C289.748 83.8944 289.067 83.4841 288.31 83.33L287.31 83.14C287.471 84.2768 288.052 85.3118 288.94 86.04C289.511 86.5678 290.195 86.9577 290.94 87.18C291 87 291 86.8 291 86.61Z" fill="#E47911"/>
<path d="M225.05 7.54001C225.45 9.06001 223.75 10.65 222.4 9.34C221.14 7.98905 219.761 6.75409 218.28 5.65001C216.89 4.78001 218.74 3.26 220.93 3.85C221.865 4.08478 222.728 4.54337 223.446 5.18622C224.163 5.82908 224.714 6.6369 225.05 7.54001V7.54001Z" fill="white"/>
<path d="M225.16 55.86C224.46 56.12 225.74 57.32 225.74 57.32C225.74 57.32 239.74 52.53 248.24 47.6C248.261 47.3015 248.21 47.0025 248.091 46.7277C247.973 46.4529 247.791 46.2103 247.56 46.02C240.285 49.7206 232.807 53.0059 225.16 55.86V55.86Z" fill="#E47911"/>
<path opacity="0.5" d="M225.16 55.86C224.46 56.12 225.74 57.32 225.74 57.32C225.74 57.32 239.74 52.53 248.24 47.6C248.261 47.3015 248.21 47.0025 248.091 46.7277C247.973 46.4529 247.791 46.2103 247.56 46.02C240.285 49.7206 232.807 53.0059 225.16 55.86V55.86Z" fill="white"/>
<path d="M235.46 14.56C238.22 15.96 240.81 17.43 243.46 19.06C244.75 19.88 246.03 20.71 247.3 21.61C248.57 22.51 249.83 23.43 251.1 24.47L251.57 24.86L252.16 25.4C252.512 25.7146 252.845 26.0484 253.16 26.4C253.48 26.75 253.75 27.09 254.01 27.4C254.27 27.71 254.55 28.08 254.78 28.4C255.712 29.6856 256.573 31.0209 257.36 32.4C258.91 35.0744 260.247 37.8663 261.36 40.75C261.566 41.2948 261.576 41.8941 261.39 42.4459C261.204 42.9977 260.832 43.468 260.338 43.7768C259.845 44.0855 259.259 44.2137 258.682 44.1396C258.104 44.0654 257.57 43.7935 257.17 43.37L257.12 43.31C255.12 41.18 253.19 38.94 251.25 36.85C249.31 34.76 247.34 32.64 245.71 31.71C243.44 30.3 240.91 28.89 238.4 27.51L230.84 23.31C229.668 22.6894 228.79 21.6285 228.4 20.3608C228.01 19.093 228.139 17.7223 228.76 16.55C229.381 15.3777 230.441 14.5 231.709 14.11C232.977 13.7199 234.348 13.8494 235.52 14.47L235.46 14.56Z" fill="#E47911"/>
<path opacity="0.8" d="M235.46 14.56C238.22 15.96 240.81 17.43 243.46 19.06C244.75 19.88 246.03 20.71 247.3 21.61C248.57 22.51 249.83 23.43 251.1 24.47L251.57 24.86L252.16 25.4C252.512 25.7146 252.845 26.0484 253.16 26.4C253.48 26.75 253.75 27.09 254.01 27.4C254.27 27.71 254.55 28.08 254.78 28.4C255.712 29.6856 256.573 31.0209 257.36 32.4C258.91 35.0744 260.247 37.8663 261.36 40.75C261.566 41.2948 261.576 41.8941 261.39 42.4459C261.204 42.9977 260.832 43.468 260.338 43.7768C259.845 44.0855 259.259 44.2137 258.682 44.1396C258.104 44.0654 257.57 43.7935 257.17 43.37L257.12 43.31C255.12 41.18 253.19 38.94 251.25 36.85C249.31 34.76 247.34 32.64 245.71 31.71C243.44 30.3 240.91 28.89 238.4 27.51L230.84 23.31C229.668 22.6894 228.79 21.6285 228.4 20.3608C228.01 19.093 228.139 17.7223 228.76 16.55C229.381 15.3777 230.441 14.5 231.709 14.11C232.977 13.7199 234.348 13.8494 235.52 14.47L235.46 14.56Z" fill="white"/>
<path d="M263.73 45.74L262.88 43.61C262.88 43.61 262.41 40.89 260.72 40.13L255.72 40.92L255.89 41.36C256.35 42.36 256 44.19 255.55 45.65C255.1 47.11 255.86 47.3 256.5 47.01C256.86 46.85 257.21 46.2 257.59 45.51C257.776 45.8576 257.987 46.1918 258.22 46.51L259.45 48.2C259.707 48.5502 260.087 48.7902 260.514 48.8718C260.94 48.9535 261.382 48.8706 261.75 48.64L263.11 47.77C263.428 47.5522 263.663 47.2325 263.776 46.8637C263.888 46.4948 263.872 46.0985 263.73 45.74V45.74Z" fill="#E47911"/>
<path opacity="0.8" d="M263.73 45.74L262.88 43.61C262.88 43.61 262.41 40.89 260.72 40.13L255.72 40.92L255.89 41.36C256.35 42.36 256 44.19 255.55 45.65C255.1 47.11 255.86 47.3 256.5 47.01C256.86 46.85 257.21 46.2 257.59 45.51C257.776 45.8576 257.987 46.1918 258.22 46.51L259.45 48.2C259.707 48.5502 260.087 48.7902 260.514 48.8718C260.94 48.9535 261.382 48.8706 261.75 48.64L263.11 47.77C263.428 47.5522 263.663 47.2325 263.776 46.8637C263.888 46.4948 263.872 46.0985 263.73 45.74V45.74Z" fill="white"/>
<path opacity="0.3" d="M231.24 26.06L230.02 26.16L222.53 44.24C222.939 44.2695 223.351 44.2357 223.75 44.14C223.75 44.14 233.51 40.5 236.46 39.14C234.48 35.05 231.24 26.06 231.24 26.06Z" fill="#E47911"/>
<path d="M217.57 30.8C218.48 35.5262 220.17 40.0682 222.57 44.24C226.23 42.98 232.33 40.6 235.29 39.24C233.3 34.9749 231.535 30.609 230 26.16C226.87 26.37 220 29 217.57 30.8Z" fill="white"/>
<path opacity="0.3" d="M225 34.71C224.854 35.199 224.566 35.6337 224.173 35.959C223.779 36.2844 223.298 36.4857 222.791 36.5377C222.283 36.5896 221.771 36.4897 221.32 36.2507C220.869 36.0118 220.499 35.6444 220.257 35.1951C220.015 34.7457 219.911 34.2347 219.96 33.7266C220.008 33.2185 220.206 32.7361 220.529 32.3406C220.851 31.945 221.284 31.654 221.772 31.5044C222.26 31.3548 222.781 31.3532 223.27 31.5C223.925 31.6966 224.475 32.1451 224.799 32.747C225.124 33.3489 225.196 34.0549 225 34.71V34.71Z" fill="#E47911"/>
<path opacity="0.6" d="M226.91 31.27C226.871 31.4369 226.782 31.5882 226.656 31.7039C226.53 31.8196 226.371 31.8944 226.201 31.9184C226.032 31.9424 225.859 31.9145 225.705 31.8384C225.551 31.7624 225.424 31.6416 225.341 31.4921C225.257 31.3425 225.22 31.1711 225.236 31.0004C225.251 30.8297 225.318 30.6676 225.427 30.5354C225.536 30.4033 225.683 30.3072 225.847 30.2598C226.012 30.2125 226.187 30.216 226.35 30.27C226.553 30.3348 226.723 30.4741 226.827 30.6597C226.931 30.8453 226.961 31.0634 226.91 31.27Z" fill="#E47911"/>
<path opacity="0.6" d="M229.15 30.4C229.127 30.516 229.079 30.6258 229.011 30.7225C228.942 30.8191 228.855 30.9003 228.753 30.961C228.651 31.0218 228.538 31.0606 228.421 31.0751C228.303 31.0895 228.184 31.0793 228.071 31.045C227.958 31.0108 227.853 30.9532 227.763 30.8761C227.673 30.7989 227.6 30.7039 227.55 30.597C227.499 30.4902 227.471 30.3739 227.467 30.2556C227.464 30.1373 227.485 30.0196 227.53 29.91C227.562 29.8042 227.615 29.7057 227.685 29.6203C227.755 29.5348 227.841 29.464 227.939 29.412C228.036 29.36 228.143 29.3277 228.253 29.3171C228.363 29.3064 228.474 29.3176 228.58 29.35C228.794 29.4148 228.974 29.5614 229.081 29.758C229.187 29.9545 229.212 30.1852 229.15 30.4V30.4Z" fill="#E47911"/>
<path opacity="0.5" d="M232.29 38.19L223.04 41.84L222.49 40.02L231.73 36.37L232.29 38.19Z" fill="#E47911"/>
<path opacity="0.2" d="M181.26 177.17C181.239 182.993 180.676 188.801 179.58 194.52C178.4 199.66 176.567 203.42 174.08 205.8C172.922 206.95 171.546 207.858 170.034 208.47C168.521 209.083 166.902 209.389 165.27 209.37C160.13 209.37 156.207 206.567 153.5 200.96C153.024 199.953 152.62 198.914 152.29 197.85C146.574 202.76 141.251 208.109 136.37 213.85L131.06 220.11C133.918 223.006 137.215 225.433 140.83 227.3C147.057 230.52 155.23 232.133 165.35 232.14C167.13 232.14 168.85 232.09 170.52 231.99C176.643 222.931 181.709 213.201 185.62 202.99L200.47 164.27L181.26 177.17Z" fill="black"/>
<path d="M47.39 230L64.89 247.5L113.89 201.33C97 194.88 64.16 213.19 47.39 230Z" fill="#263238"/>
<path d="M108.42 291C102.83 285.4 90.92 273.5 90.92 273.5L137.09 224.5C143.5 241.35 125.19 274.22 108.42 291Z" fill="#263238"/>
<path d="M175.4 180.7L194.49 143.89L157.68 163C145.856 169.132 134.939 176.872 125.24 186L62.49 245.07L93.32 275.9L152.39 213.15C161.522 203.448 169.266 192.528 175.4 180.7V180.7Z" fill="#E47911"/>
<path opacity="0.6" d="M175.4 180.7L194.49 143.89L157.68 163C145.856 169.132 134.939 176.872 125.24 186L62.49 245.07L93.32 275.9L152.39 213.15C161.522 203.448 169.266 192.528 175.4 180.7V180.7Z" fill="white"/>
<path d="M136.2 215.08C143.324 215.08 149.1 209.304 149.1 202.18C149.1 195.056 143.324 189.28 136.2 189.28C129.076 189.28 123.3 195.056 123.3 202.18C123.3 209.304 129.076 215.08 136.2 215.08Z" fill="white"/>
<path d="M136.2 210.47C140.778 210.47 144.49 206.758 144.49 202.18C144.49 197.602 140.778 193.89 136.2 193.89C131.622 193.89 127.91 197.602 127.91 202.18C127.91 206.758 131.622 210.47 136.2 210.47Z" fill="#E47911"/>
<path opacity="0.3" d="M103.75 264.82L73.56 234.63L98.28 211.37L127.01 240.11L103.75 264.82Z" fill="#E47911"/>
<path d="M54.22 257.62C31.62 259.45 24.13 273.92 21.57 293.15C20.27 302.96 19.69 312.89 11.46 318.63C10.9649 318.967 10.5921 319.454 10.3975 320.02C10.2029 320.587 10.1969 321.2 10.3805 321.77C10.564 322.34 10.9272 322.835 11.4157 323.181C11.9041 323.527 12.4916 323.706 13.09 323.69C43.43 322.74 57.58 307.89 59.36 301.69C58.8928 304.931 58.0574 308.108 56.87 311.16C56.6517 311.699 56.609 312.292 56.7479 312.856C56.8867 313.421 57.2001 313.927 57.6434 314.302C58.0867 314.678 58.6372 314.904 59.2166 314.949C59.7959 314.993 60.3746 314.854 60.87 314.55C69.38 309.22 80.06 299.4 80.77 283.47C74.51 274.6 54.22 257.62 54.22 257.62Z" fill="#E47911"/>
<path opacity="0.2" d="M54.22 257.62C31.62 259.45 24.13 273.92 21.57 293.15C20.27 302.96 19.69 312.89 11.46 318.63C10.9649 318.967 10.5921 319.454 10.3975 320.02C10.2029 320.587 10.1969 321.2 10.3805 321.77C10.564 322.34 10.9272 322.835 11.4157 323.181C11.9041 323.527 12.4916 323.706 13.09 323.69C43.43 322.74 57.58 307.89 59.36 301.69C58.8928 304.931 58.0574 308.108 56.87 311.16C56.6517 311.699 56.609 312.292 56.7479 312.856C56.8867 313.421 57.2001 313.927 57.6434 314.302C58.0867 314.678 58.6372 314.904 59.2166 314.949C59.7959 314.993 60.3746 314.854 60.87 314.55C69.38 309.22 80.06 299.4 80.77 283.47C74.51 274.6 54.22 257.62 54.22 257.62Z" fill="white"/>
<path d="M84.28 290.3L48.08 254.1L67.36 249.93L88.45 271.02L84.28 290.3Z" fill="#E47911"/>
</svg>
